<svg width="6" height="8" viewBox="0 0 6 8" fill="none" xmlns="http://www.w3.org/2000/svg">
<g clip-path="url(#clip0_668_5275)">
<path d="M0.84375 1.77637H1.76895V2.70157H0.84375V1.77637Z" fill="white"/>
<path d="M1.76895 2.70157H2.69415V3.62677H1.76895V2.70157Z" fill="white"/>
<path d="M2.69415 3.62677H3.61935V4.55197H2.69415V3.62677Z" fill="white"/>
<path d="M3.61935 2.70157H4.54455V3.62677H3.61935L3.61935 2.70157Z" fill="white"/>
<path d="M4.54455 1.77637H5.46975V2.70157H4.54455V1.77637Z" fill="white"/>
<path d="M1.76895 4.55196L2.69415 4.55197V5.47716H1.76895V4.55196Z" fill="white"/>
<path d="M0.84375 5.47716H1.76895V6.40236H0.84375V5.47716Z" fill="white"/>
<path d="M3.61935 3.62677H4.54455V4.55197H3.61935V3.62677Z" fill="white"/>
<path d="M4.54455 3.62677H5.46975V4.55197H4.54455V3.62677Z" fill="white"/>
<path d="M1.76895 3.62677H2.69415V4.55197L1.76895 4.55196V3.62677Z" fill="white"/>
<path d="M0.84375 3.62677H1.76895V4.55196L0.84375 4.55197V3.62677Z" fill="white"/>
<path d="M2.69415 4.55197H3.61935V5.47716H2.69415V4.55197Z" fill="white"/>
<path d="M2.69415 5.47716H3.61935V6.40236H2.69415V5.47716Z" fill="white"/>
<path d="M3.61935 4.55197H4.54455V5.47716H3.61935V4.55197Z" fill="white"/>
<path d="M4.54455 5.47716H5.46975V6.40236H4.54455V5.47716Z" fill="white"/>
<path d="M2.69415 2.70157H3.61935L3.61935 3.62677H2.69415V2.70157Z" fill="white"/>
<path d="M2.69415 1.77637H3.61935L3.61935 2.70157H2.69415V1.77637Z" fill="white"/>
</g>
<defs>
<clipPath id="clip0_668_5275">
<rect width="4.626" height="4.626" fill="white" transform="translate(0.84375 1.77637)"/>
</clipPath>
</defs>
</svg>
