<svg width="6" height="7" viewBox="0 0 6 7" fill="none" xmlns="http://www.w3.org/2000/svg">
<g clip-path="url(#clip0_688_254)">
<path d="M0.974609 1.17651H1.89981V2.10171H0.974609V1.17651Z" fill="white"/>
<path d="M1.89981 2.10171H2.82501V3.02691H1.89981V2.10171Z" fill="white"/>
<path d="M2.82501 3.02691H3.75021V3.95211H2.82501V3.02691Z" fill="white"/>
<path d="M3.75021 2.10171H4.67541V3.02691H3.75021L3.75021 2.10171Z" fill="white"/>
<path d="M4.67541 1.17651H5.60061V2.10171H4.67541V1.17651Z" fill="white"/>
<path d="M1.89981 3.95211L2.82501 3.95211V4.87731H1.89981V3.95211Z" fill="white"/>
<path d="M0.974609 4.87731H1.89981V5.80251H0.974609V4.87731Z" fill="white"/>
<path d="M3.75021 3.02691H4.67541V3.95211H3.75021V3.02691Z" fill="white"/>
<path d="M4.67541 3.02691H5.60061V3.95211H4.67541V3.02691Z" fill="white"/>
<path d="M1.89981 3.02691H2.82501V3.95211L1.89981 3.95211V3.02691Z" fill="white"/>
<path d="M0.974609 3.02691H1.89981V3.95211L0.974609 3.95211V3.02691Z" fill="white"/>
<path d="M2.82501 3.95211H3.75021V4.87731H2.82501V3.95211Z" fill="white"/>
<path d="M2.82501 4.87731H3.75021V5.80251H2.82501V4.87731Z" fill="white"/>
<path d="M3.75021 3.95211H4.67541V4.87731H3.75021V3.95211Z" fill="white"/>
<path d="M4.67541 4.87731H5.60061V5.80251H4.67541V4.87731Z" fill="white"/>
<path d="M2.82501 2.10171H3.75021L3.75021 3.02691H2.82501V2.10171Z" fill="white"/>
<path d="M2.82501 1.17651H3.75021L3.75021 2.10171H2.82501V1.17651Z" fill="white"/>
</g>
<defs>
<clipPath id="clip0_688_254">
<rect width="4.626" height="4.626" fill="white" transform="translate(0.974609 1.17651)"/>
</clipPath>
</defs>
</svg>
