<svg width="6" height="8" viewBox="0 0 6 8" fill="none" xmlns="http://www.w3.org/2000/svg">
<g clip-path="url(#clip0_668_5281)">
<path d="M0.974609 1.77637H1.89981V2.70157H0.974609V1.77637Z" fill="white"/>
<path d="M1.89981 2.70157H2.82501V3.62677H1.89981V2.70157Z" fill="white"/>
<path d="M2.82501 3.62677H3.75021V4.55197H2.82501V3.62677Z" fill="white"/>
<path d="M3.75021 2.70157H4.67541V3.62677H3.75021L3.75021 2.70157Z" fill="white"/>
<path d="M4.67541 1.77637H5.60061V2.70157H4.67541V1.77637Z" fill="white"/>
<path d="M1.89981 4.55196L2.82501 4.55197V5.47716H1.89981V4.55196Z" fill="white"/>
<path d="M0.974609 5.47716H1.89981V6.40236H0.974609V5.47716Z" fill="white"/>
<path d="M3.75021 3.62677H4.67541V4.55197H3.75021V3.62677Z" fill="white"/>
<path d="M4.67541 3.62677H5.60061V4.55197H4.67541V3.62677Z" fill="white"/>
<path d="M1.89981 3.62677H2.82501V4.55197L1.89981 4.55196V3.62677Z" fill="white"/>
<path d="M0.974609 3.62677H1.89981V4.55196L0.974609 4.55197V3.62677Z" fill="white"/>
<path d="M2.82501 4.55197H3.75021V5.47716H2.82501V4.55197Z" fill="white"/>
<path d="M2.82501 5.47716H3.75021V6.40236H2.82501V5.47716Z" fill="white"/>
<path d="M3.75021 4.55197H4.67541V5.47716H3.75021V4.55197Z" fill="white"/>
<path d="M4.67541 5.47716H5.60061V6.40236H4.67541V5.47716Z" fill="white"/>
<path d="M2.82501 2.70157H3.75021L3.75021 3.62677H2.82501V2.70157Z" fill="white"/>
<path d="M2.82501 1.77637H3.75021L3.75021 2.70157H2.82501V1.77637Z" fill="white"/>
</g>
<defs>
<clipPath id="clip0_668_5281">
<rect width="4.626" height="4.626" fill="white" transform="translate(0.974609 1.77637)"/>
</clipPath>
</defs>
</svg>
