<svg width="5" height="7" viewBox="0 0 5 7" fill="none" xmlns="http://www.w3.org/2000/svg">
<g clip-path="url(#clip0_688_250)">
<path d="M0.251953 1.17651H1.17715V2.10171H0.251953V1.17651Z" fill="white"/>
<path d="M1.17715 2.10171H2.10235V3.02691H1.17715V2.10171Z" fill="white"/>
<path d="M2.10235 3.02691H3.02755V3.95211H2.10235V3.02691Z" fill="white"/>
<path d="M3.02755 2.10171H3.95275V3.02691H3.02755L3.02755 2.10171Z" fill="white"/>
<path d="M3.95275 1.17651H4.87795V2.10171H3.95275V1.17651Z" fill="white"/>
<path d="M1.17715 3.95211L2.10235 3.95211V4.87731H1.17715V3.95211Z" fill="white"/>
<path d="M0.251953 4.87731H1.17715V5.80251H0.251953V4.87731Z" fill="white"/>
<path d="M3.02755 3.02691H3.95275V3.95211H3.02755V3.02691Z" fill="white"/>
<path d="M3.95275 3.02691H4.87795V3.95211H3.95275V3.02691Z" fill="white"/>
<path d="M1.17715 3.02691H2.10235V3.95211L1.17715 3.95211V3.02691Z" fill="white"/>
<path d="M0.251953 3.02691H1.17715V3.95211L0.251953 3.95211V3.02691Z" fill="white"/>
<path d="M2.10235 3.95211H3.02755V4.87731H2.10235V3.95211Z" fill="white"/>
<path d="M2.10235 4.87731H3.02755V5.80251H2.10235V4.87731Z" fill="white"/>
<path d="M3.02755 3.95211H3.95275V4.87731H3.02755V3.95211Z" fill="white"/>
<path d="M3.95275 4.87731H4.87795V5.80251H3.95275V4.87731Z" fill="white"/>
<path d="M2.10235 2.10171H3.02755L3.02755 3.02691H2.10235V2.10171Z" fill="white"/>
<path d="M2.10235 1.17651H3.02755L3.02755 2.10171H2.10235V1.17651Z" fill="white"/>
</g>
<defs>
<clipPath id="clip0_688_250">
<rect width="4.626" height="4.626" fill="white" transform="translate(0.251953 1.17651)"/>
</clipPath>
</defs>
</svg>
