<svg width="6" height="8" viewBox="0 0 6 8" fill="none" xmlns="http://www.w3.org/2000/svg">
<g clip-path="url(#clip0_668_5267)">
<path d="M0.400391 1.77637H1.32559V2.70157H0.400391V1.77637Z" fill="white"/>
<path d="M1.32559 2.70157H2.25079V3.62677H1.32559V2.70157Z" fill="white"/>
<path d="M2.25079 3.62677H3.17599V4.55197H2.25079V3.62677Z" fill="white"/>
<path d="M3.17599 2.70157H4.10119V3.62677H3.17599L3.17599 2.70157Z" fill="white"/>
<path d="M4.10119 1.77637H5.02639V2.70157H4.10119V1.77637Z" fill="white"/>
<path d="M1.32559 4.55196L2.25079 4.55197V5.47716H1.32559V4.55196Z" fill="white"/>
<path d="M0.400391 5.47716H1.32559V6.40236H0.400391V5.47716Z" fill="white"/>
<path d="M3.17599 3.62677H4.10119V4.55197H3.17599V3.62677Z" fill="white"/>
<path d="M4.10119 3.62677H5.02639V4.55197H4.10119V3.62677Z" fill="white"/>
<path d="M1.32559 3.62677H2.25079V4.55197L1.32559 4.55196V3.62677Z" fill="white"/>
<path d="M0.400391 3.62677H1.32559V4.55196L0.400391 4.55197V3.62677Z" fill="white"/>
<path d="M2.25079 4.55197H3.17599V5.47716H2.25079V4.55197Z" fill="white"/>
<path d="M2.25079 5.47716H3.17599V6.40236H2.25079V5.47716Z" fill="white"/>
<path d="M3.17599 4.55197H4.10119V5.47716H3.17599V4.55197Z" fill="white"/>
<path d="M4.10119 5.47716H5.02639V6.40236H4.10119V5.47716Z" fill="white"/>
<path d="M2.25079 2.70157H3.17599L3.17599 3.62677H2.25079V2.70157Z" fill="white"/>
<path d="M2.25079 1.77637H3.17599L3.17599 2.70157H2.25079V1.77637Z" fill="white"/>
</g>
<defs>
<clipPath id="clip0_668_5267">
<rect width="4.626" height="4.626" fill="white" transform="translate(0.400391 1.77637)"/>
</clipPath>
</defs>
</svg>
