<svg width="6" height="7" viewBox="0 0 6 7" fill="none" xmlns="http://www.w3.org/2000/svg">
<g clip-path="url(#clip0_688_240)">
<path d="M0.400391 1.17651H1.32559V2.10171H0.400391V1.17651Z" fill="white"/>
<path d="M1.32559 2.10171H2.25079V3.02691H1.32559V2.10171Z" fill="white"/>
<path d="M2.25079 3.02691H3.17599V3.95211H2.25079V3.02691Z" fill="white"/>
<path d="M3.17599 2.10171H4.10119V3.02691H3.17599L3.17599 2.10171Z" fill="white"/>
<path d="M4.10119 1.17651H5.02639V2.10171H4.10119V1.17651Z" fill="white"/>
<path d="M1.32559 3.95211L2.25079 3.95211V4.87731H1.32559V3.95211Z" fill="white"/>
<path d="M0.400391 4.87731H1.32559V5.80251H0.400391V4.87731Z" fill="white"/>
<path d="M3.17599 3.02691H4.10119V3.95211H3.17599V3.02691Z" fill="white"/>
<path d="M4.10119 3.02691H5.02639V3.95211H4.10119V3.02691Z" fill="white"/>
<path d="M1.32559 3.02691H2.25079V3.95211L1.32559 3.95211V3.02691Z" fill="white"/>
<path d="M0.400391 3.02691H1.32559V3.95211L0.400391 3.95211V3.02691Z" fill="white"/>
<path d="M2.25079 3.95211H3.17599V4.87731H2.25079V3.95211Z" fill="white"/>
<path d="M2.25079 4.87731H3.17599V5.80251H2.25079V4.87731Z" fill="white"/>
<path d="M3.17599 3.95211H4.10119V4.87731H3.17599V3.95211Z" fill="white"/>
<path d="M4.10119 4.87731H5.02639V5.80251H4.10119V4.87731Z" fill="white"/>
<path d="M2.25079 2.10171H3.17599L3.17599 3.02691H2.25079V2.10171Z" fill="white"/>
<path d="M2.25079 1.17651H3.17599L3.17599 2.10171H2.25079V1.17651Z" fill="white"/>
</g>
<defs>
<clipPath id="clip0_688_240">
<rect width="4.626" height="4.626" fill="white" transform="translate(0.400391 1.17651)"/>
</clipPath>
</defs>
</svg>
