<svg width="6" height="7" viewBox="0 0 6 7" fill="none" xmlns="http://www.w3.org/2000/svg">
<g clip-path="url(#clip0_688_242)">
<path d="M0.808594 1.17651H1.73379V2.10171H0.808594V1.17651Z" fill="white"/>
<path d="M1.73379 2.10171H2.65899V3.02691H1.73379V2.10171Z" fill="white"/>
<path d="M2.65899 3.02691H3.58419V3.95211H2.65899V3.02691Z" fill="white"/>
<path d="M3.58419 2.10171H4.50939V3.02691H3.58419L3.58419 2.10171Z" fill="white"/>
<path d="M4.50939 1.17651H5.43459V2.10171H4.50939V1.17651Z" fill="white"/>
<path d="M1.73379 3.95211L2.65899 3.95211V4.87731H1.73379V3.95211Z" fill="white"/>
<path d="M0.808594 4.87731H1.73379V5.80251H0.808594V4.87731Z" fill="white"/>
<path d="M3.58419 3.02691H4.50939V3.95211H3.58419V3.02691Z" fill="white"/>
<path d="M4.50939 3.02691H5.43459V3.95211H4.50939V3.02691Z" fill="white"/>
<path d="M1.73379 3.02691H2.65899V3.95211L1.73379 3.95211V3.02691Z" fill="white"/>
<path d="M0.808594 3.02691H1.73379V3.95211L0.808594 3.95211V3.02691Z" fill="white"/>
<path d="M2.65899 3.95211H3.58419V4.87731H2.65899V3.95211Z" fill="white"/>
<path d="M2.65899 4.87731H3.58419V5.80251H2.65899V4.87731Z" fill="white"/>
<path d="M3.58419 3.95211H4.50939V4.87731H3.58419V3.95211Z" fill="white"/>
<path d="M4.50939 4.87731H5.43459V5.80251H4.50939V4.87731Z" fill="white"/>
<path d="M2.65899 2.10171H3.58419L3.58419 3.02691H2.65899V2.10171Z" fill="white"/>
<path d="M2.65899 1.17651H3.58419L3.58419 2.10171H2.65899V1.17651Z" fill="white"/>
</g>
<defs>
<clipPath id="clip0_688_242">
<rect width="4.626" height="4.626" fill="white" transform="translate(0.808594 1.17651)"/>
</clipPath>
</defs>
</svg>
