<svg width="5" height="8" viewBox="0 0 5 8" fill="none" xmlns="http://www.w3.org/2000/svg">
<g clip-path="url(#clip0_668_5283)">
<path d="M0.287109 1.77637H1.21231V2.70157H0.287109V1.77637Z" fill="white"/>
<path d="M1.21231 2.70157H2.13751V3.62677H1.21231V2.70157Z" fill="white"/>
<path d="M2.13751 3.62677H3.06271V4.55197H2.13751V3.62677Z" fill="white"/>
<path d="M3.06271 2.70157H3.98791V3.62677H3.06271L3.06271 2.70157Z" fill="white"/>
<path d="M3.98791 1.77637H4.91311V2.70157H3.98791V1.77637Z" fill="white"/>
<path d="M1.21231 4.55196L2.13751 4.55197V5.47716H1.21231V4.55196Z" fill="white"/>
<path d="M0.287109 5.47716H1.21231V6.40236H0.287109V5.47716Z" fill="white"/>
<path d="M3.06271 3.62677H3.98791V4.55197H3.06271V3.62677Z" fill="white"/>
<path d="M3.98791 3.62677H4.91311V4.55197H3.98791V3.62677Z" fill="white"/>
<path d="M1.21231 3.62677H2.13751V4.55197L1.21231 4.55196V3.62677Z" fill="white"/>
<path d="M0.287109 3.62677H1.21231V4.55196L0.287109 4.55197V3.62677Z" fill="white"/>
<path d="M2.13751 4.55197H3.06271V5.47716H2.13751V4.55197Z" fill="white"/>
<path d="M2.13751 5.47716H3.06271V6.40236H2.13751V5.47716Z" fill="white"/>
<path d="M3.06271 4.55197H3.98791V5.47716H3.06271V4.55197Z" fill="white"/>
<path d="M3.98791 5.47716H4.91311V6.40236H3.98791V5.47716Z" fill="white"/>
<path d="M2.13751 2.70157H3.06271L3.06271 3.62677H2.13751V2.70157Z" fill="white"/>
<path d="M2.13751 1.77637H3.06271L3.06271 2.70157H2.13751V1.77637Z" fill="white"/>
</g>
<defs>
<clipPath id="clip0_668_5283">
<rect width="4.626" height="4.626" fill="white" transform="translate(0.287109 1.77637)"/>
</clipPath>
</defs>
</svg>
