<svg width="5" height="8" viewBox="0 0 5 8" fill="none" xmlns="http://www.w3.org/2000/svg">
<g clip-path="url(#clip0_668_5277)">
<path d="M0.251953 1.77637H1.17715V2.70157H0.251953V1.77637Z" fill="white"/>
<path d="M1.17715 2.70157H2.10235V3.62677H1.17715V2.70157Z" fill="white"/>
<path d="M2.10235 3.62677H3.02755V4.55197H2.10235V3.62677Z" fill="white"/>
<path d="M3.02755 2.70157H3.95275V3.62677H3.02755L3.02755 2.70157Z" fill="white"/>
<path d="M3.95275 1.77637H4.87795V2.70157H3.95275V1.77637Z" fill="white"/>
<path d="M1.17715 4.55196L2.10235 4.55197V5.47716H1.17715V4.55196Z" fill="white"/>
<path d="M0.251953 5.47716H1.17715V6.40236H0.251953V5.47716Z" fill="white"/>
<path d="M3.02755 3.62677H3.95275V4.55197H3.02755V3.62677Z" fill="white"/>
<path d="M3.95275 3.62677H4.87795V4.55197H3.95275V3.62677Z" fill="white"/>
<path d="M1.17715 3.62677H2.10235V4.55197L1.17715 4.55196V3.62677Z" fill="white"/>
<path d="M0.251953 3.62677H1.17715V4.55196L0.251953 4.55197V3.62677Z" fill="white"/>
<path d="M2.10235 4.55197H3.02755V5.47716H2.10235V4.55197Z" fill="white"/>
<path d="M2.10235 5.47716H3.02755V6.40236H2.10235V5.47716Z" fill="white"/>
<path d="M3.02755 4.55197H3.95275V5.47716H3.02755V4.55197Z" fill="white"/>
<path d="M3.95275 5.47716H4.87795V6.40236H3.95275V5.47716Z" fill="white"/>
<path d="M2.10235 2.70157H3.02755L3.02755 3.62677H2.10235V2.70157Z" fill="white"/>
<path d="M2.10235 1.77637H3.02755L3.02755 2.70157H2.10235V1.77637Z" fill="white"/>
</g>
<defs>
<clipPath id="clip0_668_5277">
<rect width="4.626" height="4.626" fill="white" transform="translate(0.251953 1.77637)"/>
</clipPath>
</defs>
</svg>
