<svg width="5" height="7" viewBox="0 0 5 7" fill="none" xmlns="http://www.w3.org/2000/svg">
<g clip-path="url(#clip0_688_244)">
<path d="M0.121094 1.17651H1.04629V2.10171H0.121094V1.17651Z" fill="white"/>
<path d="M1.04629 2.10171H1.97149V3.02691H1.04629V2.10171Z" fill="white"/>
<path d="M1.97149 3.02691H2.89669V3.95211H1.97149V3.02691Z" fill="white"/>
<path d="M2.89669 2.10171H3.82189V3.02691H2.89669L2.89669 2.10171Z" fill="white"/>
<path d="M3.82189 1.17651H4.74709V2.10171H3.82189V1.17651Z" fill="white"/>
<path d="M1.04629 3.95211L1.97149 3.95211V4.87731H1.04629V3.95211Z" fill="white"/>
<path d="M0.121094 4.87731H1.04629V5.80251H0.121094V4.87731Z" fill="white"/>
<path d="M2.89669 3.02691H3.82189V3.95211H2.89669V3.02691Z" fill="white"/>
<path d="M3.82189 3.02691H4.74709V3.95211H3.82189V3.02691Z" fill="white"/>
<path d="M1.04629 3.02691H1.97149V3.95211L1.04629 3.95211V3.02691Z" fill="white"/>
<path d="M0.121094 3.02691H1.04629V3.95211L0.121094 3.95211V3.02691Z" fill="white"/>
<path d="M1.97149 3.95211H2.89669V4.87731H1.97149V3.95211Z" fill="white"/>
<path d="M1.97149 4.87731H2.89669V5.80251H1.97149V4.87731Z" fill="white"/>
<path d="M2.89669 3.95211H3.82189V4.87731H2.89669V3.95211Z" fill="white"/>
<path d="M3.82189 4.87731H4.74709V5.80251H3.82189V4.87731Z" fill="white"/>
<path d="M1.97149 2.10171H2.89669L2.89669 3.02691H1.97149V2.10171Z" fill="white"/>
<path d="M1.97149 1.17651H2.89669L2.89669 2.10171H1.97149V1.17651Z" fill="white"/>
</g>
<defs>
<clipPath id="clip0_688_244">
<rect width="4.626" height="4.626" fill="white" transform="translate(0.121094 1.17651)"/>
</clipPath>
</defs>
</svg>
