<svg width="5" height="7" viewBox="0 0 5 7" fill="none" xmlns="http://www.w3.org/2000/svg">
<g clip-path="url(#clip0_688_238)">
<path d="M0.0878906 1.17651H1.01309V2.10171H0.0878906V1.17651Z" fill="white"/>
<path d="M1.01309 2.10171H1.93829V3.02691H1.01309V2.10171Z" fill="white"/>
<path d="M1.93829 3.02691H2.86349V3.95211H1.93829V3.02691Z" fill="white"/>
<path d="M2.86349 2.10171H3.78869V3.02691H2.86349L2.86349 2.10171Z" fill="white"/>
<path d="M3.78869 1.17651H4.71389V2.10171H3.78869V1.17651Z" fill="white"/>
<path d="M1.01309 3.95211L1.93829 3.95211V4.87731H1.01309V3.95211Z" fill="white"/>
<path d="M0.0878906 4.87731H1.01309V5.80251H0.0878906V4.87731Z" fill="white"/>
<path d="M2.86349 3.02691H3.78869V3.95211H2.86349V3.02691Z" fill="white"/>
<path d="M3.78869 3.02691H4.71389V3.95211H3.78869V3.02691Z" fill="white"/>
<path d="M1.01309 3.02691H1.93829V3.95211L1.01309 3.95211V3.02691Z" fill="white"/>
<path d="M0.0878906 3.02691H1.01309V3.95211L0.0878906 3.95211V3.02691Z" fill="white"/>
<path d="M1.93829 3.95211H2.86349V4.87731H1.93829V3.95211Z" fill="white"/>
<path d="M1.93829 4.87731H2.86349V5.80251H1.93829V4.87731Z" fill="white"/>
<path d="M2.86349 3.95211H3.78869V4.87731H2.86349V3.95211Z" fill="white"/>
<path d="M3.78869 4.87731H4.71389V5.80251H3.78869V4.87731Z" fill="white"/>
<path d="M1.93829 2.10171H2.86349L2.86349 3.02691H1.93829V2.10171Z" fill="white"/>
<path d="M1.93829 1.17651H2.86349L2.86349 2.10171H1.93829V1.17651Z" fill="white"/>
</g>
<defs>
<clipPath id="clip0_688_238">
<rect width="4.626" height="4.626" fill="white" transform="translate(0.0878906 1.17651)"/>
</clipPath>
</defs>
</svg>
