<svg width="6" height="8" viewBox="0 0 6 8" fill="none" xmlns="http://www.w3.org/2000/svg">
<g clip-path="url(#clip0_668_5273)">
<path d="M0.53125 1.77637H1.45645V2.70157H0.53125V1.77637Z" fill="white"/>
<path d="M1.45645 2.70157H2.38165V3.62677H1.45645V2.70157Z" fill="white"/>
<path d="M2.38165 3.62677H3.30685V4.55197H2.38165V3.62677Z" fill="white"/>
<path d="M3.30685 2.70157H4.23205V3.62677H3.30685L3.30685 2.70157Z" fill="white"/>
<path d="M4.23205 1.77637H5.15725V2.70157H4.23205V1.77637Z" fill="white"/>
<path d="M1.45645 4.55196L2.38165 4.55197V5.47716H1.45645V4.55196Z" fill="white"/>
<path d="M0.53125 5.47716H1.45645V6.40236H0.53125V5.47716Z" fill="white"/>
<path d="M3.30685 3.62677H4.23205V4.55197H3.30685V3.62677Z" fill="white"/>
<path d="M4.23205 3.62677H5.15725V4.55197H4.23205V3.62677Z" fill="white"/>
<path d="M1.45645 3.62677H2.38165V4.55197L1.45645 4.55196V3.62677Z" fill="white"/>
<path d="M0.53125 3.62677H1.45645V4.55196L0.53125 4.55197V3.62677Z" fill="white"/>
<path d="M2.38165 4.55197H3.30685V5.47716H2.38165V4.55197Z" fill="white"/>
<path d="M2.38165 5.47716H3.30685V6.40236H2.38165V5.47716Z" fill="white"/>
<path d="M3.30685 4.55197H4.23205V5.47716H3.30685V4.55197Z" fill="white"/>
<path d="M4.23205 5.47716H5.15725V6.40236H4.23205V5.47716Z" fill="white"/>
<path d="M2.38165 2.70157H3.30685L3.30685 3.62677H2.38165V2.70157Z" fill="white"/>
<path d="M2.38165 1.77637H3.30685L3.30685 2.70157H2.38165V1.77637Z" fill="white"/>
</g>
<defs>
<clipPath id="clip0_668_5273">
<rect width="4.626" height="4.626" fill="white" transform="translate(0.53125 1.77637)"/>
</clipPath>
</defs>
</svg>
