<svg width="5" height="7" viewBox="0 0 5 7" fill="none" xmlns="http://www.w3.org/2000/svg">
<g clip-path="url(#clip0_688_256)">
<path d="M0.287109 1.17651H1.21231V2.10171H0.287109V1.17651Z" fill="white"/>
<path d="M1.21231 2.10171H2.13751V3.02691H1.21231V2.10171Z" fill="white"/>
<path d="M2.13751 3.02691H3.06271V3.95211H2.13751V3.02691Z" fill="white"/>
<path d="M3.06271 2.10171H3.98791V3.02691H3.06271L3.06271 2.10171Z" fill="white"/>
<path d="M3.98791 1.17651H4.91311V2.10171H3.98791V1.17651Z" fill="white"/>
<path d="M1.21231 3.95211L2.13751 3.95211V4.87731H1.21231V3.95211Z" fill="white"/>
<path d="M0.287109 4.87731H1.21231V5.80251H0.287109V4.87731Z" fill="white"/>
<path d="M3.06271 3.02691H3.98791V3.95211H3.06271V3.02691Z" fill="white"/>
<path d="M3.98791 3.02691H4.91311V3.95211H3.98791V3.02691Z" fill="white"/>
<path d="M1.21231 3.02691H2.13751V3.95211L1.21231 3.95211V3.02691Z" fill="white"/>
<path d="M0.287109 3.02691H1.21231V3.95211L0.287109 3.95211V3.02691Z" fill="white"/>
<path d="M2.13751 3.95211H3.06271V4.87731H2.13751V3.95211Z" fill="white"/>
<path d="M2.13751 4.87731H3.06271V5.80251H2.13751V4.87731Z" fill="white"/>
<path d="M3.06271 3.95211H3.98791V4.87731H3.06271V3.95211Z" fill="white"/>
<path d="M3.98791 4.87731H4.91311V5.80251H3.98791V4.87731Z" fill="white"/>
<path d="M2.13751 2.10171H3.06271L3.06271 3.02691H2.13751V2.10171Z" fill="white"/>
<path d="M2.13751 1.17651H3.06271L3.06271 2.10171H2.13751V1.17651Z" fill="white"/>
</g>
<defs>
<clipPath id="clip0_688_256">
<rect width="4.626" height="4.626" fill="white" transform="translate(0.287109 1.17651)"/>
</clipPath>
</defs>
</svg>
