<svg width="6" height="7" viewBox="0 0 6 7" fill="none" xmlns="http://www.w3.org/2000/svg">
<g clip-path="url(#clip0_688_246)">
<path d="M0.53125 1.17651H1.45645V2.10171H0.53125V1.17651Z" fill="white"/>
<path d="M1.45645 2.10171H2.38165V3.02691H1.45645V2.10171Z" fill="white"/>
<path d="M2.38165 3.02691H3.30685V3.95211H2.38165V3.02691Z" fill="white"/>
<path d="M3.30685 2.10171H4.23205V3.02691H3.30685L3.30685 2.10171Z" fill="white"/>
<path d="M4.23205 1.17651H5.15725V2.10171H4.23205V1.17651Z" fill="white"/>
<path d="M1.45645 3.95211L2.38165 3.95211V4.87731H1.45645V3.95211Z" fill="white"/>
<path d="M0.53125 4.87731H1.45645V5.80251H0.53125V4.87731Z" fill="white"/>
<path d="M3.30685 3.02691H4.23205V3.95211H3.30685V3.02691Z" fill="white"/>
<path d="M4.23205 3.02691H5.15725V3.95211H4.23205V3.02691Z" fill="white"/>
<path d="M1.45645 3.02691H2.38165V3.95211L1.45645 3.95211V3.02691Z" fill="white"/>
<path d="M0.53125 3.02691H1.45645V3.95211L0.53125 3.95211V3.02691Z" fill="white"/>
<path d="M2.38165 3.95211H3.30685V4.87731H2.38165V3.95211Z" fill="white"/>
<path d="M2.38165 4.87731H3.30685V5.80251H2.38165V4.87731Z" fill="white"/>
<path d="M3.30685 3.95211H4.23205V4.87731H3.30685V3.95211Z" fill="white"/>
<path d="M4.23205 4.87731H5.15725V5.80251H4.23205V4.87731Z" fill="white"/>
<path d="M2.38165 2.10171H3.30685L3.30685 3.02691H2.38165V2.10171Z" fill="white"/>
<path d="M2.38165 1.17651H3.30685L3.30685 2.10171H2.38165V1.17651Z" fill="white"/>
</g>
<defs>
<clipPath id="clip0_688_246">
<rect width="4.626" height="4.626" fill="white" transform="translate(0.53125 1.17651)"/>
</clipPath>
</defs>
</svg>
