<svg width="6" height="7" viewBox="0 0 6 7" fill="none" xmlns="http://www.w3.org/2000/svg">
<g clip-path="url(#clip0_688_248)">
<path d="M0.84375 1.17651H1.76895V2.10171H0.84375V1.17651Z" fill="white"/>
<path d="M1.76895 2.10171H2.69415V3.02691H1.76895V2.10171Z" fill="white"/>
<path d="M2.69415 3.02691H3.61935V3.95211H2.69415V3.02691Z" fill="white"/>
<path d="M3.61935 2.10171H4.54455V3.02691H3.61935L3.61935 2.10171Z" fill="white"/>
<path d="M4.54455 1.17651H5.46975V2.10171H4.54455V1.17651Z" fill="white"/>
<path d="M1.76895 3.95211L2.69415 3.95211V4.87731H1.76895V3.95211Z" fill="white"/>
<path d="M0.84375 4.87731H1.76895V5.80251H0.84375V4.87731Z" fill="white"/>
<path d="M3.61935 3.02691H4.54455V3.95211H3.61935V3.02691Z" fill="white"/>
<path d="M4.54455 3.02691H5.46975V3.95211H4.54455V3.02691Z" fill="white"/>
<path d="M1.76895 3.02691H2.69415V3.95211L1.76895 3.95211V3.02691Z" fill="white"/>
<path d="M0.84375 3.02691H1.76895V3.95211L0.84375 3.95211V3.02691Z" fill="white"/>
<path d="M2.69415 3.95211H3.61935V4.87731H2.69415V3.95211Z" fill="white"/>
<path d="M2.69415 4.87731H3.61935V5.80251H2.69415V4.87731Z" fill="white"/>
<path d="M3.61935 3.95211H4.54455V4.87731H3.61935V3.95211Z" fill="white"/>
<path d="M4.54455 4.87731H5.46975V5.80251H4.54455V4.87731Z" fill="white"/>
<path d="M2.69415 2.10171H3.61935L3.61935 3.02691H2.69415V2.10171Z" fill="white"/>
<path d="M2.69415 1.17651H3.61935L3.61935 2.10171H2.69415V1.17651Z" fill="white"/>
</g>
<defs>
<clipPath id="clip0_688_248">
<rect width="4.626" height="4.626" fill="white" transform="translate(0.84375 1.17651)"/>
</clipPath>
</defs>
</svg>
