<svg width="5" height="8" viewBox="0 0 5 8" fill="none" xmlns="http://www.w3.org/2000/svg">
<g clip-path="url(#clip0_668_5271)">
<path d="M0.121094 1.77637H1.04629V2.70157H0.121094V1.77637Z" fill="white"/>
<path d="M1.04629 2.70157H1.97149V3.62677H1.04629V2.70157Z" fill="white"/>
<path d="M1.97149 3.62677H2.89669V4.55197H1.97149V3.62677Z" fill="white"/>
<path d="M2.89669 2.70157H3.82189V3.62677H2.89669L2.89669 2.70157Z" fill="white"/>
<path d="M3.82189 1.77637H4.74709V2.70157H3.82189V1.77637Z" fill="white"/>
<path d="M1.04629 4.55196L1.97149 4.55197V5.47716H1.04629V4.55196Z" fill="white"/>
<path d="M0.121094 5.47716H1.04629V6.40236H0.121094V5.47716Z" fill="white"/>
<path d="M2.89669 3.62677H3.82189V4.55197H2.89669V3.62677Z" fill="white"/>
<path d="M3.82189 3.62677H4.74709V4.55197H3.82189V3.62677Z" fill="white"/>
<path d="M1.04629 3.62677H1.97149V4.55197L1.04629 4.55196V3.62677Z" fill="white"/>
<path d="M0.121094 3.62677H1.04629V4.55196L0.121094 4.55197V3.62677Z" fill="white"/>
<path d="M1.97149 4.55197H2.89669V5.47716H1.97149V4.55197Z" fill="white"/>
<path d="M1.97149 5.47716H2.89669V6.40236H1.97149V5.47716Z" fill="white"/>
<path d="M2.89669 4.55197H3.82189V5.47716H2.89669V4.55197Z" fill="white"/>
<path d="M3.82189 5.47716H4.74709V6.40236H3.82189V5.47716Z" fill="white"/>
<path d="M1.97149 2.70157H2.89669L2.89669 3.62677H1.97149V2.70157Z" fill="white"/>
<path d="M1.97149 1.77637H2.89669L2.89669 2.70157H1.97149V1.77637Z" fill="white"/>
</g>
<defs>
<clipPath id="clip0_668_5271">
<rect width="4.626" height="4.626" fill="white" transform="translate(0.121094 1.77637)"/>
</clipPath>
</defs>
</svg>
