<svg width="6" height="8" viewBox="0 0 6 8" fill="none" xmlns="http://www.w3.org/2000/svg">
<g clip-path="url(#clip0_668_5279)">
<path d="M0.564453 1.77637H1.48965V2.70157H0.564453V1.77637Z" fill="white"/>
<path d="M1.48965 2.70157H2.41485V3.62677H1.48965V2.70157Z" fill="white"/>
<path d="M2.41485 3.62677H3.34005V4.55197H2.41485V3.62677Z" fill="white"/>
<path d="M3.34005 2.70157H4.26525V3.62677H3.34005L3.34005 2.70157Z" fill="white"/>
<path d="M4.26525 1.77637H5.19045V2.70157H4.26525V1.77637Z" fill="white"/>
<path d="M1.48965 4.55196L2.41485 4.55197V5.47716H1.48965V4.55196Z" fill="white"/>
<path d="M0.564453 5.47716H1.48965V6.40236H0.564453V5.47716Z" fill="white"/>
<path d="M3.34005 3.62677H4.26525V4.55197H3.34005V3.62677Z" fill="white"/>
<path d="M4.26525 3.62677H5.19045V4.55197H4.26525V3.62677Z" fill="white"/>
<path d="M1.48965 3.62677H2.41485V4.55197L1.48965 4.55196V3.62677Z" fill="white"/>
<path d="M0.564453 3.62677H1.48965V4.55196L0.564453 4.55197V3.62677Z" fill="white"/>
<path d="M2.41485 4.55197H3.34005V5.47716H2.41485V4.55197Z" fill="white"/>
<path d="M2.41485 5.47716H3.34005V6.40236H2.41485V5.47716Z" fill="white"/>
<path d="M3.34005 4.55197H4.26525V5.47716H3.34005V4.55197Z" fill="white"/>
<path d="M4.26525 5.47716H5.19045V6.40236H4.26525V5.47716Z" fill="white"/>
<path d="M2.41485 2.70157H3.34005L3.34005 3.62677H2.41485V2.70157Z" fill="white"/>
<path d="M2.41485 1.77637H3.34005L3.34005 2.70157H2.41485V1.77637Z" fill="white"/>
</g>
<defs>
<clipPath id="clip0_668_5279">
<rect width="4.626" height="4.626" fill="white" transform="translate(0.564453 1.77637)"/>
</clipPath>
</defs>
</svg>
