<svg width="6" height="8" viewBox="0 0 6 8" fill="none" xmlns="http://www.w3.org/2000/svg">
<g clip-path="url(#clip0_668_5269)">
<path d="M0.808594 1.77637H1.73379V2.70157H0.808594V1.77637Z" fill="white"/>
<path d="M1.73379 2.70157H2.65899V3.62677H1.73379V2.70157Z" fill="white"/>
<path d="M2.65899 3.62677H3.58419V4.55197H2.65899V3.62677Z" fill="white"/>
<path d="M3.58419 2.70157H4.50939V3.62677H3.58419L3.58419 2.70157Z" fill="white"/>
<path d="M4.50939 1.77637H5.43459V2.70157H4.50939V1.77637Z" fill="white"/>
<path d="M1.73379 4.55196L2.65899 4.55197V5.47716H1.73379V4.55196Z" fill="white"/>
<path d="M0.808594 5.47716H1.73379V6.40236H0.808594V5.47716Z" fill="white"/>
<path d="M3.58419 3.62677H4.50939V4.55197H3.58419V3.62677Z" fill="white"/>
<path d="M4.50939 3.62677H5.43459V4.55197H4.50939V3.62677Z" fill="white"/>
<path d="M1.73379 3.62677H2.65899V4.55197L1.73379 4.55196V3.62677Z" fill="white"/>
<path d="M0.808594 3.62677H1.73379V4.55196L0.808594 4.55197V3.62677Z" fill="white"/>
<path d="M2.65899 4.55197H3.58419V5.47716H2.65899V4.55197Z" fill="white"/>
<path d="M2.65899 5.47716H3.58419V6.40236H2.65899V5.47716Z" fill="white"/>
<path d="M3.58419 4.55197H4.50939V5.47716H3.58419V4.55197Z" fill="white"/>
<path d="M4.50939 5.47716H5.43459V6.40236H4.50939V5.47716Z" fill="white"/>
<path d="M2.65899 2.70157H3.58419L3.58419 3.62677H2.65899V2.70157Z" fill="white"/>
<path d="M2.65899 1.77637H3.58419L3.58419 2.70157H2.65899V1.77637Z" fill="white"/>
</g>
<defs>
<clipPath id="clip0_668_5269">
<rect width="4.626" height="4.626" fill="white" transform="translate(0.808594 1.77637)"/>
</clipPath>
</defs>
</svg>
