<svg width="31" height="31" viewBox="0 0 31 31" fill="none" xmlns="http://www.w3.org/2000/svg">
<circle cx="15.1693" cy="15.4124" r="15.0345" fill="#2352D5"/>
<g clip-path="url(#clip0_11_3426)">
<path d="M13.9401 13.5153L16.9782 15.2876C17 15.3004 17.018 15.3186 17.0306 15.3405C17.0431 15.3624 17.0497 15.3872 17.0497 15.4124C17.0497 15.4376 17.0431 15.4624 17.0306 15.4843C17.018 15.5062 17 15.5244 16.9782 15.5372L13.9401 17.3095C13.9181 17.3223 13.8931 17.3291 13.8676 17.3292C13.8421 17.3293 13.817 17.3226 13.795 17.3098C13.7729 17.2971 13.7546 17.2788 13.7419 17.2567C13.7292 17.2346 13.7225 17.2095 13.7227 17.184V13.6402C13.7227 13.6148 13.7294 13.5898 13.7421 13.5678C13.7548 13.5458 13.7732 13.5275 13.7952 13.5148C13.8173 13.5021 13.8423 13.4955 13.8677 13.4956C13.8931 13.4957 13.9181 13.5025 13.9401 13.5153Z" fill="white"/>
</g>
<defs>
<clipPath id="clip0_11_3426">
<rect width="6.93899" height="6.93899" fill="white" transform="translate(11.6992 11.9429)"/>
</clipPath>
</defs>
</svg>
