<svg width="10" height="10" viewBox="0 0 10 10" fill="none" xmlns="http://www.w3.org/2000/svg">
<g clip-path="url(#clip0_640_27203)">
<path d="M1.64076 3.6721C1.93715 3.0819 2.39184 2.58576 2.954 2.23912C3.51617 1.89249 4.16366 1.70902 4.8241 1.70923C5.78416 1.70923 6.59069 2.0619 7.20734 2.63723L6.186 3.65892C5.81658 3.30589 5.34706 3.12599 4.8241 3.12599C3.8961 3.12599 3.1106 3.75297 2.83095 4.59476C2.7597 4.8085 2.71909 5.03649 2.71909 5.27161C2.71909 5.50673 2.7597 5.73472 2.83095 5.94846C3.11095 6.79061 3.8961 7.41723 4.8241 7.41723C5.30324 7.41723 5.71113 7.29077 6.03032 7.07703C6.21537 6.95519 6.37379 6.7971 6.496 6.61231C6.61821 6.42752 6.70169 6.21987 6.74138 6.0019H4.8241V4.62397H8.17915C8.22119 4.85695 8.24399 5.0999 8.24399 5.35248C8.24399 6.43758 7.85569 7.35097 7.18169 7.97083C6.59247 8.51516 5.78595 8.83399 4.8241 8.83399C4.35623 8.83418 3.89291 8.74217 3.46062 8.56321C3.02832 8.38424 2.63553 8.12185 2.3047 7.79101C1.97386 7.46018 1.71147 7.06739 1.53251 6.6351C1.35355 6.20281 1.26153 5.73948 1.26172 5.27161C1.26172 4.69664 1.39923 4.15302 1.64076 3.6721Z" fill="#5F44FB"/>
</g>
<defs>
<clipPath id="clip0_640_27203">
<rect width="8.54972" height="8.54972" fill="white" transform="translate(0.548828 0.996826)"/>
</clipPath>
</defs>
</svg>
