<svg width="10" height="10" viewBox="0 0 10 10" fill="none" xmlns="http://www.w3.org/2000/svg">
<g clip-path="url(#clip0_640_27205)">
<path d="M5.02332 1.70923C5.99122 1.70923 6.11198 1.71279 6.49173 1.7306C6.87113 1.74841 7.1294 1.80791 7.35668 1.89625C7.5918 1.98674 7.78987 2.10928 7.98794 2.307C8.16908 2.48508 8.30925 2.70049 8.39868 2.93825C8.48667 3.16517 8.54652 3.4238 8.56433 3.8032C8.58107 4.18295 8.5857 4.30371 8.5857 5.27161C8.5857 6.23951 8.58214 6.36028 8.56433 6.74003C8.54652 7.11942 8.48667 7.37769 8.39868 7.60497C8.3095 7.84286 8.1693 8.05833 7.98794 8.23623C7.8098 8.41731 7.5944 8.55747 7.35668 8.64697C7.12976 8.73496 6.87113 8.79481 6.49173 8.81262C6.11198 8.82936 5.99122 8.83399 5.02332 8.83399C4.05542 8.83399 3.93466 8.83043 3.55491 8.81262C3.17551 8.79481 2.91724 8.73496 2.68996 8.64697C2.45211 8.55772 2.23666 8.41753 2.05871 8.23623C1.87752 8.05817 1.73735 7.84275 1.64796 7.60497C1.55962 7.37805 1.50012 7.11942 1.48231 6.74003C1.46557 6.36028 1.46094 6.23951 1.46094 5.27161C1.46094 4.30371 1.4645 4.18295 1.48231 3.8032C1.50012 3.42345 1.55962 3.16553 1.64796 2.93825C1.73711 2.70035 1.87731 2.48487 2.05871 2.307C2.23671 2.12575 2.45214 1.98557 2.68996 1.89625C2.91724 1.80791 3.17516 1.74841 3.55491 1.7306C3.93466 1.71386 4.05542 1.70923 5.02332 1.70923ZM5.02332 3.49042C4.55092 3.49042 4.09787 3.67808 3.76383 4.01212C3.42979 4.34616 3.24213 4.79921 3.24213 5.27161C3.24213 5.74401 3.42979 6.19707 3.76383 6.5311C4.09787 6.86514 4.55092 7.0528 5.02332 7.0528C5.49572 7.0528 5.94877 6.86514 6.28281 6.5311C6.61685 6.19707 6.80451 5.74401 6.80451 5.27161C6.80451 4.79921 6.61685 4.34616 6.28281 4.01212C5.94877 3.67808 5.49572 3.49042 5.02332 3.49042ZM7.33887 3.40136C7.33887 3.28326 7.29195 3.17 7.20844 3.08649C7.12494 3.00298 7.01167 2.95606 6.89357 2.95606C6.77547 2.95606 6.66221 3.00298 6.5787 3.08649C6.49519 3.17 6.44827 3.28326 6.44827 3.40136C6.44827 3.51946 6.49519 3.63272 6.5787 3.71623C6.66221 3.79974 6.77547 3.84666 6.89357 3.84666C7.01167 3.84666 7.12494 3.79974 7.20844 3.71623C7.29195 3.63272 7.33887 3.51946 7.33887 3.40136ZM5.02332 4.2029C5.30676 4.2029 5.57859 4.31549 5.77902 4.51592C5.97944 4.71634 6.09204 4.98817 6.09204 5.27161C6.09204 5.55505 5.97944 5.82688 5.77902 6.02731C5.57859 6.22773 5.30676 6.34033 5.02332 6.34033C4.73988 6.34033 4.46805 6.22773 4.26762 6.02731C4.0672 5.82688 3.95461 5.55505 3.95461 5.27161C3.95461 4.98817 4.0672 4.71634 4.26762 4.51592C4.46805 4.31549 4.73988 4.2029 5.02332 4.2029Z" fill="#5F44FB"/>
</g>
<defs>
<clipPath id="clip0_640_27205">
<rect width="8.54972" height="8.54972" fill="white" transform="translate(0.748047 0.996826)"/>
</clipPath>
</defs>
</svg>
