<svg width="10" height="10" viewBox="0 0 10 10" fill="none" xmlns="http://www.w3.org/2000/svg">
<g clip-path="url(#clip0_640_27204)">
<path d="M8.54441 3.01167C8.27244 3.13197 7.98403 3.21098 7.68872 3.24608C7.99999 3.05992 8.23295 2.76694 8.3442 2.42174C8.05209 2.59559 7.73183 2.71742 7.39803 2.78332C7.17382 2.54342 6.87663 2.38432 6.55266 2.33075C6.2287 2.27718 5.89611 2.33214 5.60661 2.48709C5.3171 2.64204 5.0869 2.8883 4.95179 3.18758C4.81667 3.48686 4.78422 3.82239 4.85948 4.14202C4.26709 4.11233 3.68757 3.95838 3.15854 3.69019C2.62951 3.42199 2.1628 3.04553 1.78871 2.58525C1.65629 2.8127 1.5867 3.07124 1.58707 3.33442C1.58707 3.85097 1.84998 4.30731 2.24968 4.57449C2.01314 4.56704 1.78181 4.50316 1.57496 4.38818V4.4067C1.57503 4.75072 1.69408 5.08413 1.91191 5.3504C2.12974 5.61667 2.43296 5.79941 2.77014 5.86763C2.55056 5.92714 2.32032 5.93591 2.09685 5.89328C2.19192 6.1894 2.37721 6.44837 2.62679 6.63394C2.87636 6.81951 3.17772 6.92238 3.48867 6.92816C3.17963 7.17087 2.82578 7.35029 2.44735 7.45616C2.06892 7.56203 1.67333 7.59227 1.2832 7.54516C1.96422 7.98313 2.757 8.21564 3.56669 8.21489C6.30723 8.21489 7.80593 5.94458 7.80593 3.97565C7.80593 3.91153 7.80414 3.84669 7.8013 3.78328C8.09301 3.57245 8.34477 3.31128 8.54476 3.01203L8.54441 3.01167Z" fill="#5F44FB"/>
</g>
<defs>
<clipPath id="clip0_640_27204">
<rect width="8.54972" height="8.54972" fill="white" transform="translate(0.648438 0.996826)"/>
</clipPath>
</defs>
</svg>
