<svg width="9" height="10" viewBox="0 0 9 10" fill="none" xmlns="http://www.w3.org/2000/svg">
<g clip-path="url(#clip0_640_27202)">
<path d="M5.93565 8.47772V5.99616H6.76675L6.89108 5.03147H5.93565V4.41589C5.93565 4.1366 6.01331 3.94601 6.41372 3.94601H6.92456V3.0832C6.67726 3.05696 6.42871 3.04424 6.18002 3.04508C5.44368 3.04508 4.9396 3.49466 4.9396 4.32042V5.03147H4.10672V5.99616H4.9396V8.47772H1.87382C1.77934 8.47772 1.68873 8.44019 1.62192 8.37338C1.55511 8.30657 1.51758 8.21596 1.51758 8.12148V2.42167C1.51758 2.32719 1.55511 2.23658 1.62192 2.16977C1.68873 2.10296 1.77934 2.06543 1.87382 2.06543H7.57363C7.66811 2.06543 7.75872 2.10296 7.82553 2.16977C7.89234 2.23658 7.92987 2.32719 7.92987 2.42167V8.12148C7.92987 8.21596 7.89234 8.30657 7.82553 8.37338C7.75872 8.44019 7.66811 8.47772 7.57363 8.47772H5.93565Z" fill="#5F44FB"/>
</g>
<defs>
<clipPath id="clip0_640_27202">
<rect width="8.54972" height="8.54972" fill="white" transform="translate(0.449219 0.996826)"/>
</clipPath>
</defs>
</svg>
