<svg width="10" height="10" viewBox="0 0 10 10" fill="none" xmlns="http://www.w3.org/2000/svg">
<g clip-path="url(#clip0_640_27219)">
<path d="M9.09005 2.4308C8.80826 2.55545 8.50942 2.63731 8.20344 2.67368C8.52596 2.48079 8.76734 2.17723 8.88261 1.81955C8.57994 1.99968 8.24811 2.12591 7.90225 2.1942C7.66993 1.94563 7.362 1.78078 7.02632 1.72527C6.69065 1.66977 6.34604 1.72671 6.04607 1.88727C5.7461 2.04782 5.50758 2.30297 5.36758 2.61307C5.22759 2.92316 5.19396 3.27083 5.27194 3.602C4.65814 3.57124 4.05768 3.41173 3.50953 3.13384C2.96138 2.85595 2.4778 2.46589 2.09018 1.98897C1.95298 2.22463 1.88087 2.49253 1.88126 2.76522C1.88126 3.30044 2.15367 3.77327 2.56781 4.05011C2.32272 4.04239 2.08303 3.9762 1.86871 3.85706V3.87625C1.86878 4.23271 1.99213 4.57817 2.21784 4.85406C2.44354 5.12995 2.75771 5.31929 3.10709 5.38999C2.87957 5.45164 2.64101 5.46073 2.40946 5.41657C2.50797 5.72339 2.69996 5.99172 2.95855 6.18399C3.21715 6.37627 3.5294 6.48286 3.85159 6.48884C3.53138 6.74033 3.16473 6.92623 2.77263 7.03593C2.38052 7.14563 1.97063 7.17696 1.56641 7.12815C2.27204 7.58195 3.09347 7.82286 3.93243 7.82208C6.77202 7.82208 8.32488 5.46972 8.32488 3.42963C8.32488 3.36318 8.32304 3.29601 8.32008 3.2303C8.62234 3.01185 8.8832 2.74123 9.09042 2.43117L9.09005 2.4308Z" fill="#5F44FB"/>
</g>
<defs>
<clipPath id="clip0_640_27219">
<rect width="8.85873" height="8.85873" fill="white" transform="translate(0.910156 0.343018)"/>
</clipPath>
</defs>
</svg>
