<svg width="10" height="10" viewBox="0 0 10 10" fill="none" xmlns="http://www.w3.org/2000/svg">
<g clip-path="url(#clip0_640_27220)">
<path d="M5.05637 1.0813C6.05926 1.0813 6.18439 1.08499 6.57786 1.10345C6.97097 1.1219 7.23857 1.18354 7.47407 1.27508C7.71768 1.36884 7.92291 1.49581 8.12814 1.70067C8.31583 1.88519 8.46106 2.10839 8.55373 2.35474C8.6449 2.58987 8.70691 2.85784 8.72537 3.25095C8.74271 3.64443 8.74751 3.76956 8.74751 4.77244C8.74751 5.77532 8.74382 5.90045 8.72537 6.29393C8.70691 6.68703 8.6449 6.95464 8.55373 7.19013C8.46133 7.43662 8.31606 7.65987 8.12814 7.8442C7.94357 8.03183 7.72038 8.17705 7.47407 8.26979C7.23894 8.36096 6.97097 8.42297 6.57786 8.44143C6.18439 8.45878 6.05926 8.46358 5.05637 8.46358C4.05349 8.46358 3.92836 8.45989 3.53489 8.44143C3.14178 8.42297 2.87417 8.36096 2.63868 8.26979C2.39223 8.17732 2.16899 8.03206 1.98461 7.8442C1.79688 7.65972 1.65164 7.43651 1.55902 7.19013C1.46748 6.95501 1.40584 6.68703 1.38738 6.29393C1.37003 5.90045 1.36523 5.77532 1.36523 4.77244C1.36523 3.76956 1.36893 3.64443 1.38738 3.25095C1.40584 2.85747 1.46748 2.59024 1.55902 2.35474C1.65138 2.10824 1.79666 1.88498 1.98461 1.70067C2.16904 1.51288 2.39227 1.36763 2.63868 1.27508C2.87417 1.18354 3.14141 1.1219 3.53489 1.10345C3.92836 1.0861 4.05349 1.0813 5.05637 1.0813ZM5.05637 2.92687C4.5669 2.92687 4.09747 3.12131 3.75136 3.46742C3.40525 3.81353 3.2108 4.28296 3.2108 4.77244C3.2108 5.26191 3.40525 5.73134 3.75136 6.07745C4.09747 6.42356 4.5669 6.61801 5.05637 6.61801C5.54585 6.61801 6.01528 6.42356 6.36139 6.07745C6.7075 5.73134 6.90194 5.26191 6.90194 4.77244C6.90194 4.28296 6.7075 3.81353 6.36139 3.46742C6.01528 3.12131 5.54585 2.92687 5.05637 2.92687ZM7.45561 2.83459C7.45561 2.71222 7.407 2.59486 7.32048 2.50834C7.23395 2.42181 7.11659 2.3732 6.99422 2.3732C6.87185 2.3732 6.7545 2.42181 6.66797 2.50834C6.58144 2.59486 6.53283 2.71222 6.53283 2.83459C6.53283 2.95696 6.58144 3.07432 6.66797 3.16084C6.7545 3.24737 6.87185 3.29598 6.99422 3.29598C7.11659 3.29598 7.23395 3.24737 7.32048 3.16084C7.407 3.07432 7.45561 2.95696 7.45561 2.83459ZM5.05637 3.6651C5.35006 3.6651 5.63172 3.78176 5.83938 3.98943C6.04705 4.1971 6.16371 4.47875 6.16371 4.77244C6.16371 5.06612 6.04705 5.34778 5.83938 5.55545C5.63172 5.76311 5.35006 5.87978 5.05637 5.87978C4.76269 5.87978 4.48103 5.76311 4.27336 5.55545C4.0657 5.34778 3.94903 5.06612 3.94903 4.77244C3.94903 4.47875 4.0657 4.1971 4.27336 3.98943C4.48103 3.78176 4.76269 3.6651 5.05637 3.6651Z" fill="#5F44FB"/>
</g>
<defs>
<clipPath id="clip0_640_27220">
<rect width="8.85873" height="8.85873" fill="white" transform="translate(0.626953 0.343018)"/>
</clipPath>
</defs>
</svg>
