<svg width="25" height="25" viewBox="0 0 25 25" fill="none" xmlns="http://www.w3.org/2000/svg">
<g clip-path="url(#clip0_11_3467)">
<path d="M17.25 8.9895H7.25V10.9895H11.25V17.9895H13.25V10.9895H17.25V8.9895ZM4.25 3.9895H20.25C20.5152 3.9895 20.7696 4.09486 20.9571 4.2824C21.1446 4.46993 21.25 4.72429 21.25 4.9895V20.9895C21.25 21.2547 21.1446 21.5091 20.9571 21.6966C20.7696 21.8841 20.5152 21.9895 20.25 21.9895H4.25C3.98478 21.9895 3.73043 21.8841 3.54289 21.6966C3.35536 21.5091 3.25 21.2547 3.25 20.9895V4.9895C3.25 4.72429 3.35536 4.46993 3.54289 4.2824C3.73043 4.09486 3.98478 3.9895 4.25 3.9895Z" fill="#2352D5"/>
</g>
<defs>
<clipPath id="clip0_11_3467">
<rect width="24" height="24" fill="white" transform="translate(0.25 0.989502)"/>
</clipPath>
</defs>
</svg>
