<svg width="10" height="10" viewBox="0 0 10 10" fill="none" xmlns="http://www.w3.org/2000/svg">
<g clip-path="url(#clip0_640_27217)">
<path d="M6.15978 8.09449V5.52324H7.02092L7.14974 4.52368H6.15978V3.88585C6.15978 3.59647 6.24025 3.39899 6.65513 3.39899H7.18444V2.505C6.9282 2.47781 6.67067 2.46463 6.41299 2.4655C5.65004 2.4655 5.12774 2.93132 5.12774 3.78693V4.52368H4.26475V5.52324H5.12774V8.09449H1.95115C1.85325 8.09449 1.75936 8.0556 1.69014 7.98638C1.62092 7.91716 1.58203 7.82327 1.58203 7.72538V1.81955C1.58203 1.72166 1.62092 1.62777 1.69014 1.55855C1.75936 1.48933 1.85325 1.45044 1.95115 1.45044H7.85697C7.95486 1.45044 8.04875 1.48933 8.11797 1.55855C8.18719 1.62777 8.22608 1.72166 8.22608 1.81955V7.72538C8.22608 7.82327 8.18719 7.91716 8.11797 7.98638C8.04875 8.0556 7.95486 8.09449 7.85697 8.09449H6.15978Z" fill="#5F44FB"/>
</g>
<defs>
<clipPath id="clip0_640_27217">
<rect width="8.85873" height="8.85873" fill="white" transform="translate(0.474609 0.343018)"/>
</clipPath>
</defs>
</svg>
