<svg width="10" height="10" viewBox="0 0 10 10" fill="none" xmlns="http://www.w3.org/2000/svg">
<g clip-path="url(#clip0_640_27218)">
<path d="M1.32242 3.11512C1.62953 2.50358 2.10065 1.98951 2.68314 1.63034C3.26562 1.27118 3.93651 1.08108 4.62083 1.0813C5.61559 1.0813 6.45126 1.44672 7.0902 2.04284L6.03195 3.10146C5.64918 2.73567 5.16269 2.54927 4.62083 2.54927C3.65929 2.54927 2.84539 3.19891 2.55563 4.07112C2.48181 4.29259 2.43973 4.52882 2.43973 4.77244C2.43973 5.01605 2.48181 5.25229 2.55563 5.47375C2.84576 6.34634 3.65929 6.99561 4.62083 6.99561C5.11728 6.99561 5.53992 6.86458 5.87065 6.64311C6.06238 6.51687 6.22652 6.35307 6.35315 6.1616C6.47978 5.97013 6.56628 5.75497 6.6074 5.52912H4.62083V4.10139H8.09714C8.1407 4.34279 8.16432 4.59453 8.16432 4.85623C8.16432 5.98055 7.76199 6.92696 7.06362 7.56921C6.45311 8.13322 5.61743 8.46358 4.62083 8.46358C4.13604 8.46377 3.65598 8.36843 3.20806 8.183C2.76014 7.99757 2.35316 7.72569 2.01036 7.3829C1.66757 7.04011 1.39569 6.63312 1.21026 6.18521C1.02484 5.73729 0.929494 5.25722 0.929688 4.77244C0.929688 4.17669 1.07217 3.61342 1.32242 3.11512Z" fill="#5F44FB"/>
</g>
<defs>
<clipPath id="clip0_640_27218">
<rect width="8.85873" height="8.85873" fill="white" transform="translate(0.191406 0.343018)"/>
</clipPath>
</defs>
</svg>
