<svg width="62" height="62" viewBox="0 0 62 62" fill="none" xmlns="http://www.w3.org/2000/svg">
<g clip-path="url(#clip0_2_614)">
<path d="M36.084 15.6496H41.1673V20.7329H53.8756C54.5497 20.7329 55.1962 21.0007 55.6729 21.4773C56.1495 21.954 56.4173 22.6005 56.4173 23.2746V42.3371L41.1673 33.4412L41.2588 53.9322L46.9089 48.4676L51.4382 56.3162H23.3757C22.7016 56.3162 22.0551 56.0485 21.5784 55.5718C21.1018 55.0951 20.834 54.4487 20.834 53.7746V41.0662H15.7507V35.9829H20.834V23.2746C20.834 22.6005 21.1018 21.954 21.5784 21.4773C22.0551 21.0007 22.7016 20.7329 23.3757 20.7329H36.084V15.6496ZM56.4173 44.467V53.7746C56.4176 54.0394 56.3764 54.3027 56.2953 54.5549L51.3136 45.9284L56.4173 44.467ZM10.6673 35.9829V41.0662H5.58398V35.9829H10.6673ZM10.6673 25.8162V30.8996H5.58398V25.8162H10.6673ZM10.6673 15.6496V20.7329H5.58398V15.6496H10.6673ZM10.6673 5.48291V10.5662H5.58398V5.48291H10.6673ZM20.834 5.48291V10.5662H15.7507V5.48291H20.834ZM31.0006 5.48291V10.5662H25.9173V5.48291H31.0006ZM41.1673 5.48291V10.5662H36.084V5.48291H41.1673Z" fill="#222222"/>
</g>
<defs>
<clipPath id="clip0_2_614">
<rect width="61" height="61" fill="white" transform="translate(0.5 0.399658)"/>
</clipPath>
</defs>
</svg>
