<svg width="122" height="52" viewBox="0 0 122 52" fill="none" xmlns="http://www.w3.org/2000/svg">
<path d="M46.6533 5.83408C46.6533 5.0231 47.3213 4.36791 48.1097 4.36791H74.5602C75.3647 4.36791 76.0166 5.0231 76.0166 5.83408V24.7515H46.6533V5.83408ZM45.1851 27.6634H77.4847V30.5754H45.1851V27.6634Z" fill="#2352D5"/>
<path d="M12.6564 42.395L9.84855 51.869H8.49416L6.56499 45.1533L4.6094 51.869H3.28805L0.5 42.395H2.08562L4.0214 49.2351L5.96378 42.395H7.16621L9.12181 49.2351L11.0642 42.395H12.6564Z" fill="black"/>
<path d="M14.0889 51.869V42.395H20.405L20.3984 43.7643H15.7076V46.4178H19.85V47.7675H15.6944V50.48L20.4975 50.4865V51.869H14.0889Z" fill="black"/>
<path d="M22.5151 51.869V42.395H25.7987C27.0099 42.395 27.915 42.609 28.5141 43.037C29.1175 43.4607 29.4192 44.0722 29.4192 44.8716C29.4192 45.3564 29.2936 45.7757 29.0426 46.1295C28.7915 46.4833 28.3489 46.7825 27.7146 47.0271C28.1022 47.1189 28.4216 47.2455 28.6726 47.4071C28.9281 47.5644 29.1263 47.7457 29.2672 47.9509C29.4082 48.1519 29.5073 48.3681 29.5645 48.5996C29.6218 48.8311 29.6504 49.0691 29.6504 49.3137C29.6504 50.1786 29.3465 50.8207 28.7387 51.24C28.1353 51.6593 27.1993 51.869 25.9308 51.869H22.5151ZM24.1206 50.5979H25.9506C26.6289 50.5979 27.1421 50.4778 27.49 50.2375C27.8424 49.9929 28.0185 49.6413 28.0185 49.1827C28.0185 48.8507 27.9327 48.5777 27.7609 48.3637C27.5891 48.1453 27.3557 47.9837 27.0606 47.8789C26.7655 47.774 26.4351 47.7216 26.0696 47.7216H24.1206V50.5979ZM24.1206 46.4309H26.0696C26.2942 46.4309 26.5122 46.4069 26.7236 46.3588C26.935 46.3108 27.1266 46.2344 27.2984 46.1295C27.4702 46.0247 27.6067 45.8849 27.708 45.7102C27.8137 45.5355 27.8666 45.3236 27.8666 45.0747C27.8666 44.5986 27.6838 44.2448 27.3182 44.0133C26.9571 43.7774 26.4924 43.6595 25.9242 43.6595H24.1206V46.4309Z" fill="black"/>
<path d="M34.9704 52C34.5079 52 34.0565 51.9432 33.616 51.8297C33.1756 51.7117 32.7748 51.5392 32.4136 51.3121C32.0568 51.0806 31.7595 50.7945 31.5217 50.4538C31.2838 50.1087 31.1385 49.7068 31.0856 49.2482H32.7505C32.821 49.5671 32.9597 49.8357 33.1668 50.0541C33.3738 50.2725 33.6314 50.4385 33.9397 50.552C34.2525 50.6656 34.5938 50.7224 34.9638 50.7224C35.3602 50.7224 35.717 50.67 36.0341 50.5651C36.3556 50.4603 36.6089 50.3074 36.7939 50.1065C36.9832 49.9056 37.0779 49.6588 37.0779 49.3661C37.0779 49.1084 37.0097 48.89 36.8731 48.711C36.7366 48.5319 36.545 48.3856 36.2984 48.272C36.0561 48.1541 35.772 48.0601 35.4461 47.9903L33.6887 47.6102C32.9796 47.4661 32.418 47.1866 32.004 46.7716C31.5899 46.3567 31.3785 45.8041 31.3697 45.114C31.3653 44.5418 31.5173 44.0438 31.8256 43.6202C32.1383 43.1921 32.5633 42.8623 33.1007 42.6308C33.638 42.395 34.2459 42.277 34.9241 42.277C35.717 42.277 36.3842 42.4059 36.926 42.6636C37.4721 42.9169 37.884 43.2576 38.1615 43.6857C38.4433 44.1137 38.5865 44.5833 38.5909 45.0943H36.9656C36.926 44.7187 36.8115 44.4195 36.6221 44.1967C36.4371 43.974 36.1992 43.8145 35.9086 43.7184C35.6179 43.6223 35.2963 43.5743 34.944 43.5743C34.6797 43.5743 34.433 43.6049 34.204 43.666C33.975 43.7272 33.7746 43.8167 33.6028 43.9347C33.431 44.0526 33.2967 44.1967 33.1998 44.3671C33.1073 44.5331 33.061 44.7231 33.061 44.9371C33.061 45.2428 33.1623 45.4918 33.365 45.684C33.572 45.8718 33.9574 46.0312 34.5211 46.1623L36.2389 46.5423C36.7718 46.6471 37.2013 46.8044 37.5272 47.014C37.8531 47.2237 38.102 47.4639 38.2738 47.7347C38.4455 48.0012 38.5601 48.2742 38.6173 48.5537C38.6746 48.8333 38.7032 49.0997 38.7032 49.353C38.7032 49.8466 38.549 50.2943 38.2407 50.6962C37.9368 51.098 37.5052 51.4169 36.9458 51.6528C36.3908 51.8843 35.7324 52 34.9704 52Z" fill="black"/>
<path d="M40.5546 42.395H42.1601V51.869H40.5546V42.395Z" fill="black"/>
<path d="M43.5987 43.8298V42.395H51.0511V43.8298H48.1838V51.869H46.5717V43.8298H43.5987Z" fill="black"/>
<path d="M52.4907 51.869V42.395H58.8067L58.8001 43.7643H54.1093V46.4178H58.2517V47.7675H54.0961V50.48L58.8992 50.4865V51.869H52.4907Z" fill="black"/>
<path d="M66.6332 51.869V42.395H69.9168C71.128 42.395 72.0331 42.609 72.6322 43.037C73.2356 43.4607 73.5373 44.0722 73.5373 44.8716C73.5373 45.3564 73.4118 45.7757 73.1607 46.1295C72.9096 46.4833 72.467 46.7825 71.8327 47.0271C72.2203 47.1189 72.5397 47.2455 72.7907 47.4071C73.0462 47.5644 73.2444 47.7457 73.3853 47.9509C73.5263 48.1519 73.6254 48.3681 73.6826 48.5996C73.7399 48.8311 73.7685 49.0691 73.7685 49.3137C73.7685 50.1786 73.4646 50.8207 72.8568 51.24C72.2534 51.6593 71.3174 51.869 70.0489 51.869H66.6332ZM68.2387 50.5979H70.0687C70.747 50.5979 71.2602 50.4778 71.6081 50.2375C71.9605 49.9929 72.1367 49.6413 72.1367 49.1827C72.1367 48.8507 72.0508 48.5777 71.879 48.3637C71.7072 48.1453 71.4738 47.9837 71.1787 47.8789C70.8836 47.774 70.5532 47.7216 70.1877 47.7216H68.2387V50.5979ZM68.2387 46.4309H70.1877C70.4123 46.4309 70.6303 46.4069 70.8417 46.3588C71.0531 46.3108 71.2447 46.2344 71.4165 46.1295C71.5883 46.0247 71.7248 45.8849 71.8261 45.7102C71.9318 45.5355 71.9847 45.3236 71.9847 45.0747C71.9847 44.5986 71.8019 44.2448 71.4363 44.0133C71.0752 43.7774 70.6105 43.6595 70.0423 43.6595H68.2387V46.4309Z" fill="black"/>
<path d="M82.9352 48.4096C82.9352 49.1609 82.8119 49.8051 82.5652 50.3424C82.3185 50.8753 81.9243 51.2858 81.3826 51.5741C80.8452 51.858 80.1361 52 79.2552 52C78.3743 52 77.663 51.8559 77.1212 51.5676C76.5839 51.2749 76.1941 50.8556 75.9518 50.3096C75.7096 49.7593 75.5885 49.0953 75.5885 48.3179V42.395H77.2336V48.4816C77.2336 49.2155 77.4141 49.7571 77.7753 50.1065C78.1409 50.4559 78.6342 50.6307 79.2552 50.6307C79.6736 50.6307 80.037 50.5542 80.3453 50.4013C80.6536 50.2485 80.8915 50.0148 81.0589 49.7003C81.2262 49.3814 81.3099 48.9752 81.3099 48.4816V42.395H82.9352V48.4096Z" fill="black"/>
<path d="M85.0211 42.395H86.6266V51.869H85.0211V42.395Z" fill="black"/>
<path d="M88.9505 42.395H90.5758V50.4931H94.89V51.869H88.9439L88.9505 42.395Z" fill="black"/>
<path d="M96.57 42.395C96.6097 42.395 96.7264 42.395 96.9202 42.395C97.114 42.395 97.343 42.395 97.6073 42.395C97.876 42.395 98.1469 42.3971 98.4199 42.4015C98.6974 42.4015 98.9375 42.4037 99.1401 42.4081C100.303 42.4299 101.248 42.6286 101.974 43.0043C102.706 43.3756 103.241 43.9063 103.58 44.5964C103.923 45.2822 104.095 46.1099 104.095 47.0795C104.095 48.0929 103.912 48.9556 103.547 49.6675C103.186 50.3795 102.631 50.9255 101.882 51.3055C101.138 51.6811 100.191 51.869 99.041 51.869H96.57V42.395ZM98.2019 43.7119V50.552H99.0674C99.7237 50.552 100.303 50.4407 100.805 50.2179C101.307 49.9908 101.699 49.6239 101.981 49.1172C102.267 48.6105 102.41 47.9335 102.41 47.0861C102.41 46.2649 102.278 45.6076 102.014 45.114C101.75 44.6204 101.371 44.2644 100.878 44.046C100.384 43.8233 99.7941 43.7119 99.107 43.7119H98.2019Z" fill="black"/>
<path d="M105.925 51.869V42.395H112.241L112.235 43.7643H107.544V46.4178H111.686V47.7675H107.531V50.48L112.334 50.4865V51.869H105.925Z" fill="black"/>
<path d="M121.5 51.869H119.822L118.177 48.023H115.957V51.869H114.351V42.395H118.23C118.961 42.395 119.562 42.5085 120.033 42.7357C120.509 42.9584 120.861 43.2751 121.09 43.6857C121.319 44.0919 121.434 44.568 121.434 45.114C121.434 45.6207 121.35 46.0465 121.183 46.3916C121.015 46.7323 120.797 47.0118 120.529 47.2302C120.265 47.4443 119.98 47.619 119.677 47.7544L121.5 51.869ZM117.866 46.7585C118.474 46.7585 118.948 46.6187 119.287 46.3392C119.63 46.0596 119.802 45.6709 119.802 45.173C119.802 44.6837 119.644 44.3059 119.326 44.0395C119.009 43.773 118.591 43.6398 118.071 43.6398H115.957V46.7585H117.866Z" fill="black"/>
</svg>
