<svg width="114" height="54" viewBox="0 0 114 54" fill="none" xmlns="http://www.w3.org/2000/svg">
<path d="M54.2377 16.6573V26.0603H43.4223C43.4222 24.7157 43.7124 23.3866 44.2735 22.1611C44.8346 20.9355 45.6539 19.8418 46.6768 18.9524C47.6998 18.063 48.9031 17.3984 50.2067 17.0027C51.5103 16.607 52.8844 16.4892 54.2377 16.6573ZM53.036 15.3993C49.0523 15.3993 45.8258 12.2188 45.8258 8.292C45.8258 4.3652 49.0523 1.18468 53.036 1.18468C57.0196 1.18468 60.2462 4.3652 60.2462 8.292C60.2462 12.2188 57.0196 15.3993 53.036 15.3993ZM59.9975 23.5893L64.2455 19.4019L65.9459 21.0769L59.9975 26.9404L55.7482 22.7518L57.4487 21.0769L59.9963 23.5893H59.9975Z" fill="#2352D5"/>
<path d="M4.52115 43.6035C5.2735 43.6035 5.94067 43.7551 6.52267 44.0583C7.10467 44.3568 7.57311 44.7626 7.92799 45.2757C8.2876 45.7887 8.50053 46.3601 8.56677 46.9897H6.74269C6.67172 46.6166 6.53923 46.2831 6.34523 45.9893C6.15596 45.6954 5.90518 45.4622 5.59289 45.2896C5.28059 45.1171 4.90679 45.0308 4.47147 45.0308C3.92732 45.0308 3.46362 45.159 3.08035 45.4156C2.70181 45.6674 2.41081 46.0686 2.20735 46.6189C2.00861 47.1693 1.90925 47.8829 1.90925 48.7598C1.90925 50.0891 2.13164 51.0569 2.57642 51.6632C3.0212 52.2696 3.65288 52.5728 4.47147 52.5728C4.90679 52.5728 5.28059 52.4795 5.59289 52.2929C5.90518 52.1017 6.15596 51.8498 6.34523 51.5373C6.53923 51.2201 6.67172 50.875 6.74269 50.5019H8.56677C8.50999 50.959 8.3917 51.3974 8.21189 51.8172C8.03682 52.2369 7.7884 52.6124 7.46665 52.9436C7.14489 53.2701 6.74033 53.5289 6.25296 53.7201C5.77033 53.9067 5.19306 54 4.52115 54C3.57954 54 2.77042 53.7878 2.09378 53.3633C1.42188 52.9342 0.903758 52.3279 0.539415 51.5443C0.179805 50.7561 0 49.8209 0 48.7388C0 47.6614 0.179805 46.7402 0.539415 45.9753C0.899026 45.2104 1.41478 44.625 2.08669 44.2192C2.76332 43.8088 3.57481 43.6035 4.52115 43.6035Z" fill="black"/>
<path d="M17.2131 49.3685H12.2448V53.8601H10.52V43.7435H12.2448V47.9202H17.2131V43.7435H18.9378V53.8601H17.2131V49.3685Z" fill="black"/>
<path d="M21.4159 43.7435H23.1406V53.8601H21.4159V43.7435Z" fill="black"/>
<path d="M25.6372 43.7435H27.3832V52.3909H32.0179V53.8601H25.6301L25.6372 43.7435Z" fill="black"/>
<path d="M33.8228 43.7435C33.8654 43.7435 33.9908 43.7435 34.199 43.7435C34.4072 43.7435 34.6532 43.7435 34.9371 43.7435C35.2258 43.7435 35.5168 43.7458 35.8101 43.7505C36.1082 43.7505 36.3661 43.7528 36.5838 43.7575C37.8329 43.7808 38.8479 43.993 39.6286 44.3941C40.4141 44.7906 40.989 45.3573 41.3533 46.0942C41.7224 46.8265 41.907 47.7104 41.907 48.7458C41.907 49.8279 41.7106 50.7491 41.3179 51.5093C40.9299 52.2696 40.3337 52.8526 39.5293 53.2584C38.7296 53.6595 37.7123 53.8601 36.4773 53.8601H33.8228V43.7435ZM35.5759 45.1497V52.4538H36.5057C37.2107 52.4538 37.8329 52.3349 38.3724 52.097C38.9118 51.8545 39.3329 51.4627 39.6357 50.9216C39.9433 50.3806 40.0971 49.6577 40.0971 48.7528C40.0971 47.8759 39.9551 47.174 39.6712 46.6469C39.3873 46.1199 38.9804 45.7397 38.4504 45.5065C37.9205 45.2687 37.2864 45.1497 36.5483 45.1497H35.5759Z" fill="black"/>
<path d="M51.0019 43.6035C51.7543 43.6035 52.4215 43.7551 53.0035 44.0583C53.5855 44.3568 54.0539 44.7626 54.4088 45.2757C54.7684 45.7887 54.9813 46.3601 55.0476 46.9897H53.2235C53.1525 46.6166 53.02 46.2831 52.826 45.9893C52.6367 45.6954 52.386 45.4622 52.0737 45.2896C51.7614 45.1171 51.3876 45.0308 50.9523 45.0308C50.4081 45.0308 49.9444 45.159 49.5611 45.4156C49.1826 45.6674 48.8916 46.0686 48.6881 46.6189C48.4894 47.1693 48.39 47.8829 48.39 48.7598C48.39 50.0891 48.6124 51.0569 49.0572 51.6632C49.502 52.2696 50.1337 52.5728 50.9523 52.5728C51.3876 52.5728 51.7614 52.4795 52.0737 52.2929C52.386 52.1017 52.6367 51.8498 52.826 51.5373C53.02 51.2201 53.1525 50.875 53.2235 50.5019H55.0476C54.9908 50.959 54.8725 51.3974 54.6927 51.8172C54.5176 52.2369 54.2692 52.6124 53.9474 52.9436C53.6257 53.2701 53.2211 53.5289 52.7337 53.7201C52.2511 53.9067 51.6738 54 51.0019 54C50.0603 54 49.2512 53.7878 48.5746 53.3633C47.9027 52.9342 47.3845 52.3279 47.0202 51.5443C46.6606 50.7561 46.4808 49.8209 46.4808 48.7388C46.4808 47.6614 46.6606 46.7402 47.0202 45.9753C47.3798 45.2104 47.8956 44.625 48.5675 44.2192C49.2441 43.8088 50.0556 43.6035 51.0019 43.6035Z" fill="black"/>
<path d="M63.6938 49.3685H58.7255V53.8601H57.0008V43.7435H58.7255V47.9202H63.6938V43.7435H65.4185V53.8601H63.6938V49.3685Z" fill="black"/>
<path d="M67.8967 53.8601V43.7435H74.682L74.6749 45.2057H69.6356V48.0392H74.0858V49.4804H69.6214V52.3769L74.7814 52.3839V53.8601H67.8967Z" fill="black"/>
<path d="M80.7785 43.6035C81.5308 43.6035 82.198 43.7551 82.78 44.0583C83.362 44.3568 83.8304 44.7626 84.1853 45.2757C84.5449 45.7887 84.7578 46.3601 84.8241 46.9897H83C82.929 46.6166 82.7965 46.2831 82.6025 45.9893C82.4133 45.6954 82.1625 45.4622 81.8502 45.2896C81.5379 45.1171 81.1641 45.0308 80.7288 45.0308C80.1846 45.0308 79.7209 45.159 79.3377 45.4156C78.9591 45.6674 78.6681 46.0686 78.4647 46.6189C78.2659 47.1693 78.1666 47.8829 78.1666 48.7598C78.1666 50.0891 78.389 51.0569 78.8337 51.6632C79.2785 52.2696 79.9102 52.5728 80.7288 52.5728C81.1641 52.5728 81.5379 52.4795 81.8502 52.2929C82.1625 52.1017 82.4133 51.8498 82.6025 51.5373C82.7965 51.2201 82.929 50.875 83 50.5019H84.8241C84.7673 50.959 84.649 51.3974 84.4692 51.8172C84.2941 52.2369 84.0457 52.6124 83.724 52.9436C83.4022 53.2701 82.9977 53.5289 82.5103 53.7201C82.0276 53.9067 81.4504 54 80.7785 54C79.8369 54 79.0277 53.7878 78.3511 53.3633C77.6792 52.9342 77.1611 52.3279 76.7967 51.5443C76.4371 50.7561 76.2573 49.8209 76.2573 48.7388C76.2573 47.6614 76.4371 46.7402 76.7967 45.9753C77.1563 45.2104 77.6721 44.625 78.344 44.2192C79.0206 43.8088 79.8321 43.6035 80.7785 43.6035Z" fill="black"/>
<path d="M95.0531 53.8601H93.1439L90.2126 48.9277L88.5731 50.8237V53.8601H86.7774V43.7435H88.5731V48.6479L92.7038 43.7435H94.7124L91.4547 47.6894L95.0531 53.8601Z" fill="black"/>
<path d="M99.2425 49.6133V50.8867L95.495 50.8937V49.6203L99.2425 49.6133Z" fill="black"/>
<path d="M101.347 43.7435H103.072V53.8601H101.347V43.7435Z" fill="black"/>
<path d="M112.275 43.7435H114V53.8601H112.446L107.286 46.437V53.8601H105.561V43.7435H107.25L112.275 50.9706V43.7435Z" fill="black"/>
</svg>
