<svg width="82" height="68" viewBox="0 0 82 68" fill="none" xmlns="http://www.w3.org/2000/svg">
<path d="M33.046 3.01619H51.1431C51.5431 3.01619 51.9267 3.17508 52.2095 3.4579C52.4923 3.74072 52.6512 4.12431 52.6512 4.52428V31.67C52.6512 32.07 52.4923 32.4536 52.2095 32.7364C51.9267 33.0192 51.5431 33.1781 51.1431 33.1781H33.046C32.646 33.1781 32.2624 33.0192 31.9796 32.7364C31.6968 32.4536 31.5379 32.07 31.5379 31.67V4.52428C31.5379 4.12431 31.6968 3.74072 31.9796 3.4579C32.2624 3.17508 32.646 3.01619 33.046 3.01619ZM42.0946 25.6376C41.6946 25.6376 41.311 25.7965 41.0282 26.0793C40.7453 26.3621 40.5865 26.7457 40.5865 27.1457C40.5865 27.5457 40.7453 27.9293 41.0282 28.2121C41.311 28.4949 41.6946 28.6538 42.0946 28.6538C42.4945 28.6538 42.8781 28.4949 43.1609 28.2121C43.4438 27.9293 43.6026 27.5457 43.6026 27.1457C43.6026 26.7457 43.4438 26.3621 43.1609 26.0793C42.8781 25.7965 42.4945 25.6376 42.0946 25.6376Z" fill="#2352D5"/>
<path d="M0.582031 53.1603V43.3472H2.94371L5.51576 50.8462L8.11497 43.3472H10.4631V53.1603H8.78682V45.4645L6.20119 53.1603H4.82355L2.25828 45.512V53.1603H0.582031Z" fill="black"/>
<path d="M16.7516 53.2961C15.8468 53.2961 15.0641 53.097 14.4035 52.6989C13.7475 52.3007 13.2385 51.7262 12.8766 50.9751C12.5192 50.2241 12.3405 49.3238 12.3405 48.2741C12.3405 47.2154 12.5214 46.3083 12.8834 45.5528C13.2453 44.7972 13.7566 44.2181 14.4171 43.8154C15.0822 43.4128 15.8604 43.2114 16.7516 43.2114C17.6429 43.2114 18.4143 43.4128 19.0658 43.8154C19.7218 44.2181 20.2286 44.7972 20.586 45.5528C20.9434 46.3083 21.1221 47.2154 21.1221 48.2741C21.1221 49.3238 20.9457 50.2241 20.5928 50.9751C20.2399 51.7216 19.7354 52.2962 19.0794 52.6989C18.4234 53.097 17.6475 53.2961 16.7516 53.2961ZM16.7516 51.9116C17.2855 51.9116 17.7447 51.7872 18.1293 51.5384C18.5139 51.285 18.8079 50.8937 19.0115 50.3643C19.2196 49.8305 19.3237 49.1405 19.3237 48.2945C19.3237 47.4349 19.2196 46.7336 19.0115 46.1907C18.8034 45.6432 18.5071 45.2406 18.1225 44.9827C17.7379 44.7248 17.281 44.5959 16.7516 44.5959C16.2178 44.5959 15.7563 44.7271 15.3672 44.9895C14.9827 45.2474 14.6841 45.65 14.4714 46.1975C14.2588 46.7404 14.1524 47.4394 14.1524 48.2945C14.1524 49.1405 14.2588 49.8305 14.4714 50.3643C14.6841 50.8937 14.9827 51.285 15.3672 51.5384C15.7563 51.7872 16.2178 51.9116 16.7516 51.9116Z" fill="black"/>
<path d="M22.9958 53.1603V43.3472H26.3687C27.6128 43.3472 28.5426 43.5689 29.1579 44.0122C29.7777 44.4511 30.0876 45.0845 30.0876 45.9124C30.0876 46.4146 29.9587 46.849 29.7008 47.2154C29.4429 47.5819 28.9882 47.8918 28.3367 48.1452C28.7349 48.2402 29.0629 48.3714 29.3207 48.5388C29.5832 48.7017 29.7867 48.8894 29.9315 49.1021C30.0763 49.3102 30.1781 49.5341 30.2369 49.7739C30.2957 50.0137 30.3251 50.2603 30.3251 50.5136C30.3251 51.4094 30.013 52.0745 29.3886 52.5089C28.7688 52.9432 27.8074 53.1603 26.5044 53.1603H22.9958ZM24.6449 51.8438H26.5247C27.2215 51.8438 27.7486 51.7194 28.106 51.4705C28.4679 51.2172 28.6489 50.853 28.6489 50.3779C28.6489 50.0341 28.5607 49.7513 28.3842 49.5296C28.2078 49.3034 27.968 49.136 27.6649 49.0274C27.3617 48.9188 27.0224 48.8645 26.6469 48.8645H24.6449V51.8438ZM24.6449 47.5276H26.6469C26.8776 47.5276 27.1016 47.5027 27.3188 47.453C27.5359 47.4032 27.7327 47.324 27.9092 47.2154C28.0856 47.1069 28.2259 46.9621 28.3299 46.7811C28.4385 46.6001 28.4928 46.3807 28.4928 46.1228C28.4928 45.6297 28.305 45.2632 27.9295 45.0234C27.5585 44.7791 27.0812 44.657 26.4976 44.657H24.6449V47.5276Z" fill="black"/>
<path d="M32.3404 43.3472H33.9895V53.1603H32.3404V43.3472Z" fill="black"/>
<path d="M36.3766 43.3472H38.0461V51.7352H42.4776V53.1603H36.3698L36.3766 43.3472Z" fill="black"/>
<path d="M44.2034 53.1603V43.3472H50.6912L50.6844 44.7655H45.8661V47.514H50.1211V48.912H45.8525V51.7216L50.7862 51.7284V53.1603H44.2034Z" fill="black"/>
<path d="M55.0089 53.1603L58.5378 43.3472H60.3226L63.8448 53.1603H62.1889L61.3134 50.6969H57.5673L56.6715 53.1603H55.0089ZM57.9474 49.231H60.9063L59.4336 44.9556L57.9474 49.231Z" fill="black"/>
<path d="M65.4905 53.1603V43.3472H68.9719C69.6777 43.3472 70.3089 43.4693 70.8653 43.7136C71.4264 43.9534 71.8675 44.3086 72.1887 44.7791C72.5099 45.2496 72.6705 45.8287 72.6705 46.5164C72.6705 47.1634 72.5235 47.7176 72.2294 48.1791C71.9399 48.6406 71.5349 48.9935 71.0146 49.2378C70.4944 49.4821 69.8858 49.6043 69.1891 49.6043H67.1667V53.1603H65.4905ZM67.1532 48.2809H69.1484C69.723 48.2809 70.1912 48.109 70.5532 47.7651C70.9196 47.4213 71.1029 46.9734 71.1029 46.4214C71.1029 45.8604 70.9128 45.4261 70.5328 45.1184C70.1528 44.8063 69.6755 44.6502 69.1009 44.6502H67.1532V48.2809Z" fill="black"/>
<path d="M74.2386 53.1603V43.3472H77.7201C78.4259 43.3472 79.057 43.4693 79.6135 43.7136C80.1745 43.9534 80.6156 44.3086 80.9368 44.7791C81.258 45.2496 81.4187 45.8287 81.4187 46.5164C81.4187 47.1634 81.2716 47.7176 80.9775 48.1791C80.688 48.6406 80.2831 48.9935 79.7628 49.2378C79.2425 49.4821 78.634 49.6043 77.9372 49.6043H75.9149V53.1603H74.2386ZM75.9013 48.2809H77.8965C78.4711 48.2809 78.9394 48.109 79.3013 47.7651C79.6678 47.4213 79.851 46.9734 79.851 46.4214C79.851 45.8604 79.661 45.4261 79.2809 45.1184C78.9009 44.8063 78.4236 44.6502 77.849 44.6502H75.9013V48.2809Z" fill="black"/>
<path d="M14.1151 67.8643V58.0511H17.488C18.7322 58.0511 19.6619 58.2728 20.2772 58.7162C20.897 59.155 21.2069 59.7884 21.2069 60.6164C21.2069 61.1186 21.078 61.5529 20.8201 61.9194C20.5622 62.2858 20.1075 62.5957 19.456 62.8491C19.8542 62.9441 20.1822 63.0753 20.4401 63.2427C20.7025 63.4056 20.9061 63.5933 21.0508 63.806C21.1956 64.0141 21.2974 64.2381 21.3562 64.4778C21.4151 64.7176 21.4445 64.9642 21.4445 65.2176C21.4445 66.1134 21.1323 66.7784 20.5079 67.2128C19.8881 67.6471 18.9267 67.8643 17.6237 67.8643H14.1151ZM15.7642 66.5477H17.6441C18.3408 66.5477 18.8679 66.4233 19.2253 66.1745C19.5872 65.9211 19.7682 65.5569 19.7682 65.0818C19.7682 64.738 19.68 64.4552 19.5035 64.2335C19.3271 64.0073 19.0873 63.8399 18.7842 63.7313C18.4811 63.6228 18.1417 63.5685 17.7662 63.5685H15.7642V66.5477ZM15.7642 62.2315H17.7662C17.997 62.2315 18.2209 62.2067 18.4381 62.1569C18.6552 62.1071 18.852 62.0279 19.0285 61.9194C19.2049 61.8108 19.3452 61.666 19.4493 61.485C19.5578 61.3041 19.6121 61.0846 19.6121 60.8267C19.6121 60.3336 19.4244 59.9671 19.0489 59.7273C18.6779 59.483 18.2006 59.3609 17.6169 59.3609H15.7642V62.2315Z" fill="black"/>
<path d="M30.8604 64.281C30.8604 65.0592 30.7337 65.7265 30.4804 66.283C30.227 66.835 29.8221 67.2603 29.2656 67.5589C28.7136 67.853 27.9852 68 27.0804 68C26.1755 68 25.4449 67.8507 24.8884 67.5521C24.3364 67.249 23.936 66.8146 23.6872 66.2491C23.4383 65.679 23.3139 64.9914 23.3139 64.186V58.0511H25.0037V64.3557C25.0037 65.1158 25.1892 65.6768 25.5602 66.0387C25.9357 66.4007 26.4425 66.5816 27.0804 66.5816C27.5102 66.5816 27.8834 66.5025 28.2001 66.3441C28.5168 66.1858 28.7612 65.9437 28.9331 65.618C29.105 65.2877 29.191 64.8669 29.191 64.3557V58.0511H30.8604V64.281Z" fill="black"/>
<path d="M33.0031 58.0511H34.6522V67.8643H33.0031V58.0511Z" fill="black"/>
<path d="M37.0394 58.0511H38.7088V66.4391H43.1404V67.8643H37.0326L37.0394 58.0511Z" fill="black"/>
<path d="M44.8661 58.0511C44.9068 58.0511 45.0267 58.0511 45.2258 58.0511C45.4249 58.0511 45.6601 58.0511 45.9316 58.0511C46.2076 58.0511 46.4858 58.0534 46.7663 58.0579C47.0513 58.0579 47.2979 58.0601 47.506 58.0647C48.7005 58.0873 49.6709 58.2931 50.4174 58.6822C51.1684 59.0668 51.7182 59.6165 52.0665 60.3313C52.4194 61.0417 52.5959 61.899 52.5959 62.9034C52.5959 63.953 52.4081 64.8466 52.0326 65.584C51.6616 66.3215 51.0915 66.887 50.3224 67.2806C49.5578 67.6697 48.5851 67.8643 47.4042 67.8643H44.8661V58.0511ZM46.5424 59.4152V66.5002H47.4314C48.1055 66.5002 48.7005 66.3848 49.2162 66.1541C49.732 65.9188 50.1347 65.5388 50.4242 65.014C50.7183 64.4892 50.8653 63.7879 50.8653 62.9102C50.8653 62.0596 50.7296 61.3787 50.4581 60.8675C50.1867 60.3562 49.7976 59.9875 49.2909 59.7613C48.7841 59.5305 48.1779 59.4152 47.4721 59.4152H46.5424Z" fill="black"/>
<path d="M54.4758 67.8643V58.0511H60.9636L60.9568 59.4695H56.1385V62.218H60.3936V63.616H56.1249V66.4256L61.0586 66.4323V67.8643H54.4758Z" fill="black"/>
<path d="M70.4741 67.8643H68.7503L67.0605 63.8806H64.7803V67.8643H63.1312V58.0511H67.1148C67.8658 58.0511 68.4834 58.1687 68.9675 58.404C69.4561 58.6347 69.818 58.9627 70.0533 59.388C70.2886 59.8088 70.4062 60.3019 70.4062 60.8675C70.4062 61.3923 70.3202 61.8334 70.1483 62.1908C69.9764 62.5437 69.7524 62.8333 69.4765 63.0595C69.205 63.2812 68.9132 63.4621 68.601 63.6024L70.4741 67.8643ZM66.7415 62.5709C67.3659 62.5709 67.8522 62.4261 68.2006 62.1365C68.5535 61.847 68.73 61.4443 68.73 60.9285C68.73 60.4218 68.5671 60.0305 68.2413 59.7545C67.9156 59.4785 67.4858 59.3405 66.9519 59.3405H64.7803V62.5709H66.7415Z" fill="black"/>
</svg>
