<svg width="54" height="68" viewBox="0 0 54 68" fill="none" xmlns="http://www.w3.org/2000/svg">
<path d="M8.00528 20.302H44.9179V36.9127C44.9179 37.4022 44.7235 37.8716 44.3773 38.2177C44.0312 38.5639 43.5618 38.7583 43.0723 38.7583H9.85091C9.36142 38.7583 8.89197 38.5639 8.54585 38.2177C8.19973 37.8716 8.00528 37.4022 8.00528 36.9127V20.302ZM35.6898 5.53694H43.0723C43.5618 5.53694 44.0312 5.73139 44.3773 6.07751C44.7235 6.42363 44.9179 6.89308 44.9179 7.38257V16.6107H8.00528V7.38257C8.00528 6.89308 8.19973 6.42363 8.54585 6.07751C8.89197 5.73139 9.36142 5.53694 9.85091 5.53694H17.2334V1.84567H20.9247V5.53694H31.9985V1.84567H35.6898V5.53694Z" fill="#2352D5"/>
<path d="M0.230469 68V55.9905H8.17038L8.16207 57.7263H2.26528V61.09H7.47273V62.8009H2.24867V66.2393L8.28665 66.2476V68H0.230469Z" fill="black"/>
<path d="M20.3342 55.9905L16.14 68H13.7979L9.65353 55.9905H11.6053L14.9689 65.6662L18.3824 55.9905H20.3342Z" fill="black"/>
<path d="M22.1293 68V55.9905H30.0692L30.0609 57.7263H24.1641V61.09H29.3716V62.8009H24.1475V66.2393L30.1855 66.2476V68H22.1293Z" fill="black"/>
<path d="M40.5787 55.9905H42.5969V68H40.7781L34.7401 59.188V68H32.7219V55.9905H34.6986L40.5787 64.5699V55.9905Z" fill="black"/>
<path d="M44.3997 57.8093V55.9905H53.7681V57.8093H50.1636V68H48.1371V57.8093H44.3997Z" fill="black"/>
</svg>
