<svg width="98" height="68" viewBox="0 0 98 68" fill="none" xmlns="http://www.w3.org/2000/svg">
<path d="M48.5564 16.4522C50.5397 16.4522 52.4419 17.2401 53.8443 18.6426C55.2468 20.045 56.0347 21.9471 56.0347 23.9305V32.9044H41.0781V23.9305C41.0781 21.9471 41.866 20.045 43.2684 18.6426C44.6709 17.2401 46.573 16.4522 48.5564 16.4522ZM38.5175 20.9482C38.2795 21.751 38.1389 22.5796 38.0988 23.416L38.0868 23.9305V32.9044H33.5998V26.174C33.5995 24.8841 34.0755 23.6395 34.9364 22.6789C35.7973 21.7184 36.9825 21.1095 38.2648 20.9691L38.519 20.9482H38.5175ZM58.5952 20.9482C59.9262 21.0293 61.1761 21.6152 62.09 22.5863C63.0038 23.5574 63.5127 24.8405 63.5129 26.174V32.9044H59.026V23.9305C59.026 22.894 58.8764 21.8934 58.5952 20.9482ZM38.8346 11.9652C39.8263 11.9652 40.7774 12.3592 41.4786 13.0604C42.1798 13.7616 42.5738 14.7127 42.5738 15.7044C42.5738 16.6961 42.1798 17.6471 41.4786 18.3484C40.7774 19.0496 39.8263 19.4435 38.8346 19.4435C37.8429 19.4435 36.8919 19.0496 36.1907 18.3484C35.4894 17.6471 35.0955 16.6961 35.0955 15.7044C35.0955 14.7127 35.4894 13.7616 36.1907 13.0604C36.8919 12.3592 37.8429 11.9652 38.8346 11.9652ZM58.2782 11.9652C59.2698 11.9652 60.2209 12.3592 60.9221 13.0604C61.6233 13.7616 62.0173 14.7127 62.0173 15.7044C62.0173 16.6961 61.6233 17.6471 60.9221 18.3484C60.2209 19.0496 59.2698 19.4435 58.2782 19.4435C57.2865 19.4435 56.3354 19.0496 55.6342 18.3484C54.933 17.6471 54.539 16.6961 54.539 15.7044C54.539 14.7127 54.933 13.7616 55.6342 13.0604C56.3354 12.3592 57.2865 11.9652 58.2782 11.9652ZM48.5564 2.99131C50.1431 2.99131 51.6648 3.62162 52.7867 4.74358C53.9087 5.86554 54.539 7.38725 54.539 8.97394C54.539 10.5606 53.9087 12.0823 52.7867 13.2043C51.6648 14.3263 50.1431 14.9566 48.5564 14.9566C46.9697 14.9566 45.448 14.3263 44.326 13.2043C43.2041 12.0823 42.5738 10.5606 42.5738 8.97394C42.5738 7.38725 43.2041 5.86554 44.326 4.74358C45.448 3.62162 46.9697 2.99131 48.5564 2.99131Z" fill="#2352D5"/>
<path d="M22.9407 43.4159C23.6541 43.4159 24.2867 43.5617 24.8386 43.8534C25.3905 44.1405 25.8347 44.5309 26.1713 45.0245C26.5123 45.518 26.7142 46.0677 26.777 46.6734H25.0473C24.98 46.3145 24.8543 45.9937 24.6704 45.711C24.4909 45.4283 24.2531 45.204 23.957 45.0379C23.6608 44.8719 23.3063 44.7889 22.8935 44.7889C22.3775 44.7889 21.9378 44.9123 21.5744 45.1591C21.2154 45.4014 20.9395 45.7873 20.7465 46.3167C20.5581 46.8462 20.4638 47.5327 20.4638 48.3762C20.4638 49.655 20.6747 50.5861 21.0965 51.1694C21.5183 51.7527 22.1173 52.0443 22.8935 52.0443C23.3063 52.0443 23.6608 51.9546 23.957 51.7751C24.2531 51.5912 24.4909 51.3489 24.6704 51.0482C24.8543 50.7431 24.98 50.4111 25.0473 50.0521H26.777C26.7232 50.4919 26.611 50.9136 26.4405 51.3175C26.2745 51.7213 26.0389 52.0825 25.7338 52.4011C25.4287 52.7151 25.045 52.9642 24.5829 53.1481C24.1252 53.3276 23.5778 53.4174 22.9407 53.4174C22.0477 53.4174 21.2805 53.2132 20.6388 52.8049C20.0017 52.3921 19.5104 51.8088 19.1649 51.055C18.8239 50.2967 18.6534 49.397 18.6534 48.3561C18.6534 47.3196 18.8239 46.4334 19.1649 45.6975C19.5059 44.9617 19.995 44.3985 20.6321 44.0082C21.2737 43.6133 22.0433 43.4159 22.9407 43.4159Z" fill="black"/>
<path d="M34.9761 48.9618H30.2648V53.2827H28.6293V43.5505H30.2648V47.5686H34.9761V43.5505H36.6116V53.2827H34.9761V48.9618Z" fill="black"/>
<path d="M46.3406 49.7291C46.3406 50.5008 46.215 51.1627 45.9637 51.7146C45.7125 52.262 45.3109 52.6837 44.759 52.9799C44.2116 53.2715 43.4892 53.4174 42.5918 53.4174C41.6944 53.4174 40.9697 53.2693 40.4178 52.9731C39.8704 52.6725 39.4733 52.2418 39.2266 51.6809C38.9798 51.1155 38.8564 50.4335 38.8564 49.6348V43.5505H40.5323V49.8031C40.5323 50.5569 40.7162 51.1133 41.0842 51.4723C41.4566 51.8312 41.9591 52.0107 42.5918 52.0107C43.018 52.0107 43.3882 51.9322 43.7023 51.7751C44.0164 51.6181 44.2587 51.378 44.4292 51.055C44.5997 50.7274 44.685 50.3101 44.685 49.8031V43.5505H46.3406V49.7291Z" fill="black"/>
<path d="M55.748 53.2827H54.0385L52.3626 49.332H50.1012V53.2827H48.4657V43.5505H52.4165C53.1613 43.5505 53.7738 43.6672 54.2539 43.9005C54.7385 44.1293 55.0974 44.4546 55.3307 44.8764C55.5641 45.2937 55.6807 45.7828 55.6807 46.3436C55.6807 46.8641 55.5955 47.3016 55.425 47.6561C55.2545 48.0061 55.0324 48.2932 54.7587 48.5176C54.4894 48.7374 54.2 48.9169 53.8904 49.056L55.748 53.2827ZM52.0463 48.033C52.6655 48.033 53.1478 47.8894 53.4933 47.6022C53.8433 47.3151 54.0183 46.9157 54.0183 46.4042C54.0183 45.9017 53.8568 45.5136 53.5337 45.2399C53.2107 44.9661 52.7844 44.8293 52.2549 44.8293H50.1012V48.033H52.0463Z" fill="black"/>
<path d="M61.3253 43.4159C62.0387 43.4159 62.6714 43.5617 63.2232 43.8534C63.7751 44.1405 64.2194 44.5309 64.5559 45.0245C64.8969 45.518 65.0988 46.0677 65.1616 46.6734H63.4319C63.3646 46.3145 63.239 45.9937 63.055 45.711C62.8755 45.4283 62.6377 45.204 62.3416 45.0379C62.0454 44.8719 61.6909 44.7889 61.2781 44.7889C60.7621 44.7889 60.3224 44.9123 59.959 45.1591C59.6 45.4014 59.3241 45.7873 59.1311 46.3167C58.9427 46.8462 58.8485 47.5327 58.8485 48.3762C58.8485 49.655 59.0593 50.5861 59.4811 51.1694C59.9029 51.7527 60.5019 52.0443 61.2781 52.0443C61.6909 52.0443 62.0454 51.9546 62.3416 51.7751C62.6377 51.5912 62.8755 51.3489 63.055 51.0482C63.239 50.7431 63.3646 50.4111 63.4319 50.0521H65.1616C65.1078 50.4919 64.9956 50.9136 64.8251 51.3175C64.6591 51.7213 64.4235 52.0825 64.1184 52.4011C63.8133 52.7151 63.4296 52.9642 62.9675 53.1481C62.5098 53.3276 61.9624 53.4174 61.3253 53.4174C60.4324 53.4174 59.6651 53.2132 59.0234 52.8049C58.3863 52.3921 57.895 51.8088 57.5495 51.055C57.2085 50.2967 57.038 49.397 57.038 48.3561C57.038 47.3196 57.2085 46.4334 57.5495 45.6975C57.8905 44.9617 58.3796 44.3985 59.0167 44.0082C59.6584 43.6133 60.4279 43.4159 61.3253 43.4159Z" fill="black"/>
<path d="M73.3607 48.9618H68.6494V53.2827H67.0139V43.5505H68.6494V47.5686H73.3607V43.5505H74.9962V53.2827H73.3607V48.9618Z" fill="black"/>
<path d="M0.0839844 67.8654V58.1332H2.42618L4.97702 65.5703L7.55479 58.1332H9.88352V67.8654H8.2211V60.2331L5.6568 67.8654H4.29052L1.74641 60.2802V67.8654H0.0839844Z" fill="black"/>
<path d="M11.5233 67.8654L15.0232 58.1332H16.7933L20.2864 67.8654H18.6442L17.7759 65.4222H14.0607L13.1723 67.8654H11.5233ZM14.4376 63.9685H17.3721L15.9116 59.7283L14.4376 63.9685Z" fill="black"/>
<path d="M28.2855 58.1332H29.921V67.8654H28.4471L23.554 60.7244V67.8654H21.9185V58.1332H23.5204L28.2855 65.0857V58.1332Z" fill="black"/>
<path d="M31.5569 67.8654L35.0568 58.1332H36.8269L40.32 67.8654H38.6778L37.8095 65.4222H34.0943L33.2059 67.8654H31.5569ZM34.4712 63.9685H37.4057L35.9452 59.7283L34.4712 63.9685Z" fill="black"/>
<path d="M45.2479 68C44.3775 68 43.6214 67.8003 42.9798 67.401C42.3382 67.0016 41.8446 66.4318 41.4991 65.6915C41.1536 64.9466 40.9808 64.0582 40.9808 63.0262C40.9808 61.9852 41.1603 61.0878 41.5193 60.334C41.8782 59.5802 42.383 59.0036 43.0336 58.6043C43.6887 58.2005 44.456 57.9985 45.3354 57.9985C45.8739 57.9985 46.3697 58.0883 46.8229 58.2678C47.2805 58.4472 47.6799 58.6895 48.0209 58.9947C48.3664 59.2998 48.6379 59.6475 48.8353 60.0379C49.0327 60.4282 49.1426 60.8343 49.1651 61.2561H47.4353C47.3725 60.924 47.2446 60.6189 47.0517 60.3407C46.8633 60.0581 46.6187 59.8315 46.3181 59.661C46.0219 59.4905 45.6832 59.4052 45.3018 59.4052C44.8127 59.4052 44.3752 59.5286 43.9893 59.7754C43.608 60.0222 43.3073 60.4103 43.0875 60.9398C42.8721 61.4647 42.7644 62.1468 42.7644 62.9858C42.7644 63.6499 42.8317 64.2108 42.9663 64.6684C43.1054 65.1216 43.2939 65.4873 43.5317 65.7655C43.774 66.0392 44.0522 66.2389 44.3663 66.3645C44.6803 66.4856 45.0124 66.5462 45.3624 66.5462C45.7034 66.5462 46.004 66.4879 46.2642 66.3712C46.5245 66.2546 46.7444 66.102 46.9238 65.9136C47.1078 65.7251 47.2491 65.5232 47.3478 65.3078C47.451 65.088 47.5116 64.8748 47.5296 64.6684L47.5901 63.955H45.4162V62.7974L49.2997 62.8108V67.8654H48.142V66.4991C47.976 66.7459 47.7651 66.9837 47.5094 67.2125C47.2581 67.4414 46.9485 67.6298 46.5806 67.7779C46.2171 67.926 45.7729 68 45.2479 68Z" fill="black"/>
<path d="M51.5351 67.8654V58.1332H57.9694L57.9627 59.5398H53.1841V62.2657H57.4041V63.6521H53.1706V66.4385L58.0637 66.4453V67.8654H51.5351Z" fill="black"/>
<path d="M60.1191 67.8654V58.1332H62.4613L65.0121 65.5703L67.5899 58.1332H69.9186V67.8654H68.2562V60.2331L65.6919 67.8654H64.3256L61.7815 60.2802V67.8654H60.1191Z" fill="black"/>
<path d="M72.2786 67.8654V58.1332H78.7129L78.7062 59.5398H73.9276V62.2657H78.1476V63.6521H73.9141V66.4385L78.8071 66.4453V67.8654H72.2786Z" fill="black"/>
<path d="M87.2296 58.1332H88.8651V67.8654H87.3911L82.4981 60.7244V67.8654H80.8626V58.1332H82.4644L87.2296 65.0857V58.1332Z" fill="black"/>
<path d="M90.326 59.6071V58.1332H97.9179V59.6071H94.9969V67.8654H93.3547V59.6071H90.326Z" fill="black"/>
</svg>
